<svg width="633" height="1019" viewBox="0 0 633 1019" fill="none" xmlns="http://www.w3.org/2000/svg">
<g opacity="0.5">
<path d="M714.509 231.003L597.003 299.867" stroke="#B2B2B2"/>
<path d="M645.645 113.497L528.139 182.361" stroke="url(#paint0_linear_582_299)"/>
<path d="M597.003 299.867L528.139 182.361" stroke="#B2B2B2"/>
<path d="M714.509 231.003L645.644 113.497" stroke="#B2B2B2"/>
<path d="M597.003 299.867L440.328 391.686" stroke="#B2B2B2"/>
<path d="M528.139 182.361L371.464 274.18" stroke="url(#paint1_linear_582_299)"/>
<path d="M440.329 391.686L371.464 274.181" stroke="#B2B2B2"/>
<path d="M597.003 299.867L528.139 182.361" stroke="url(#paint2_linear_582_299)"/>
<path d="M97.2834 434.864L214.789 366" stroke="#B2B2B2"/>
<path d="M166.148 552.37L283.654 483.506" stroke="#B2B2B2"/>
<path d="M214.789 366L283.654 483.506" stroke="#B2B2B2"/>
<path d="M97.2834 434.864L166.148 552.37" stroke="#B2B2B2"/>
<path d="M214.789 366L371.464 274.181" stroke="url(#paint3_linear_582_299)"/>
<path d="M283.654 483.506L440.328 391.687" stroke="#B2B2B2"/>
<path d="M214.789 366L283.654 483.506" stroke="#B2B2B2"/>
<path d="M440.328 391.686L557.834 322.822" stroke="#B2B2B2"/>
<path d="M509.193 509.192L626.699 440.328" stroke="#B2B2B2"/>
<path d="M557.834 322.822L626.698 440.328" stroke="#B2B2B2"/>
<path d="M557.834 322.822L714.509 231.003" stroke="#B2B2B2"/>
<path d="M626.698 440.328L783.373 348.509" stroke="#B2B2B2"/>
<path d="M557.834 322.822L626.698 440.328" stroke="#B2B2B2"/>
<path d="M509.193 509.192L391.687 578.057" stroke="#B2B2B2"/>
<path d="M440.329 391.686L322.823 460.551" stroke="#B2B2B2"/>
<path d="M391.688 578.057L322.823 460.551" stroke="#B2B2B2"/>
<path d="M391.687 578.057L235.012 669.876" stroke="#B2B2B2"/>
<path d="M322.823 460.551L166.148 552.37" stroke="#B2B2B2"/>
<path d="M235.013 669.876L166.148 552.37" stroke="url(#paint4_linear_582_299)"/>
<path d="M391.687 578.057L322.823 460.551" stroke="#B2B2B2"/>
<path d="M734.721 534.877L578.047 626.696" stroke="#B2B2B2"/>
<path d="M665.857 417.371L509.182 509.19" stroke="#B2B2B2"/>
<path d="M578.047 626.696L509.182 509.19" stroke="#B2B2B2"/>
<path d="M235.002 669.874L352.508 601.009" stroke="#B2B2B2"/>
<path d="M303.867 787.38L421.373 718.515" stroke="#B2B2B2"/>
<path d="M352.508 601.009L421.372 718.515" stroke="#B2B2B2"/>
<path d="M235.002 669.874L303.866 787.38" stroke="#B2B2B2"/>
<path d="M352.508 601.009L509.183 509.19" stroke="url(#paint5_linear_582_299)"/>
<path d="M421.373 718.515L578.047 626.696" stroke="#B2B2B2"/>
<path d="M352.508 601.009L421.373 718.515" stroke="#B2B2B2"/>
<path d="M578.047 626.696L695.553 557.831" stroke="#B2B2B2"/>
<path d="M646.911 744.202L529.405 813.066" stroke="#B2B2B2"/>
<path d="M578.047 626.696L460.541 695.56" stroke="#B2B2B2"/>
<path d="M529.406 813.066L460.541 695.56" stroke="#B2B2B2"/>
<path d="M529.405 813.066L372.731 904.885" stroke="#B2B2B2"/>
<path d="M460.541 695.56L303.866 787.38" stroke="#B2B2B2"/>
<path d="M372.73 904.886L303.866 787.38" stroke="#B2B2B2"/>
<path d="M529.405 813.066L460.541 695.56" stroke="url(#paint6_linear_582_299)"/>
</g>
<defs>
<linearGradient id="paint0_linear_582_299" x1="621.653" y1="107.235" x2="562.831" y2="160.098" gradientUnits="userSpaceOnUse">
<stop stop-color="#13B0F5"/>
<stop offset="1" stop-color="#CA24B4"/>
</linearGradient>
<linearGradient id="paint1_linear_582_299" x1="527.723" y1="183.954" x2="427.611" y2="316.567" gradientUnits="userSpaceOnUse">
<stop stop-color="#E70FAA"/>
<stop offset="1" stop-color="#13B0F5"/>
</linearGradient>
<linearGradient id="paint2_linear_582_299" x1="603.265" y1="275.875" x2="550.402" y2="217.053" gradientUnits="userSpaceOnUse">
<stop stop-color="#13B0F5"/>
<stop offset="1" stop-color="#CA24B4"/>
</linearGradient>
<linearGradient id="paint3_linear_582_299" x1="246.778" y1="374.349" x2="325.208" y2="303.866" gradientUnits="userSpaceOnUse">
<stop stop-color="#00C0FD"/>
<stop offset="0.421875" stop-color="#E70FAA"/>
<stop offset="1" stop-color="#00C0FD"/>
</linearGradient>
<linearGradient id="paint4_linear_582_299" x1="235.013" y1="669.876" x2="134.428" y2="594.956" gradientUnits="userSpaceOnUse">
<stop stop-color="#8E34FF"/>
<stop offset="0.494792" stop-color="#CA24B4"/>
<stop offset="1" stop-color="#8E34FF"/>
</linearGradient>
<linearGradient id="paint5_linear_582_299" x1="392.577" y1="577.864" x2="465.951" y2="479.804" gradientUnits="userSpaceOnUse">
<stop stop-color="#13B0F5"/>
<stop offset="0.75" stop-color="#CA24B4"/>
<stop offset="1" stop-color="#13B0F5"/>
</linearGradient>
<linearGradient id="paint6_linear_582_299" x1="529.405" y1="813.066" x2="428.821" y2="738.147" gradientUnits="userSpaceOnUse">
<stop stop-color="#13B0F5"/>
<stop offset="0.0582928" stop-color="#CA24B4"/>
<stop offset="1" stop-color="#13B0F5"/>
</linearGradient>
</defs>
</svg>
