<svg width="1019" height="1019" viewBox="0 0 1019 1019" fill="none" xmlns="http://www.w3.org/2000/svg">
<g opacity="0.5">
<path d="M714.508 231.002L597.002 299.867" stroke="#B2B2B2"/>
<path d="M645.644 113.497L528.138 182.361" stroke="url(#paint0_linear_802_235)"/>
<path d="M597.002 299.867L528.138 182.361" stroke="#B2B2B2"/>
<path d="M714.508 231.002L645.644 113.496" stroke="#B2B2B2"/>
<path d="M597.002 299.867L440.328 391.686" stroke="#B2B2B2"/>
<path d="M528.138 182.361L371.463 274.18" stroke="url(#paint1_linear_802_235)"/>
<path d="M440.328 391.686L371.463 274.18" stroke="#B2B2B2"/>
<path d="M597.002 299.867L528.138 182.361" stroke="url(#paint2_linear_802_235)"/>
<path d="M97.2832 434.864L214.789 366" stroke="#B2B2B2"/>
<path d="M166.147 552.37L283.653 483.506" stroke="#B2B2B2"/>
<path d="M214.789 366L283.653 483.506" stroke="#B2B2B2"/>
<path d="M97.2832 434.864L166.148 552.37" stroke="#B2B2B2"/>
<path d="M214.789 366L371.464 274.181" stroke="url(#paint3_linear_802_235)"/>
<path d="M283.654 483.505L440.328 391.686" stroke="#B2B2B2"/>
<path d="M214.789 366L283.653 483.506" stroke="#B2B2B2"/>
<path d="M440.328 391.686L557.834 322.822" stroke="#B2B2B2"/>
<path d="M509.192 509.192L626.698 440.328" stroke="#B2B2B2"/>
<path d="M557.834 322.822L626.698 440.328" stroke="#B2B2B2"/>
<path d="M557.833 322.822L714.508 231.003" stroke="#B2B2B2"/>
<path d="M626.698 440.328L783.373 348.509" stroke="#B2B2B2"/>
<path d="M714.508 231.002L783.373 348.508" stroke="url(#paint4_linear_802_235)"/>
<path d="M557.833 322.822L626.698 440.328" stroke="#B2B2B2"/>
<path d="M509.192 509.192L391.686 578.056" stroke="#B2B2B2"/>
<path d="M440.328 391.686L322.822 460.55" stroke="#B2B2B2"/>
<path d="M391.687 578.056L322.822 460.551" stroke="#B2B2B2"/>
<path d="M391.687 578.056L235.012 669.876" stroke="#B2B2B2"/>
<path d="M322.822 460.55L166.148 552.37" stroke="#B2B2B2"/>
<path d="M235.012 669.876L166.148 552.37" stroke="url(#paint5_linear_802_235)"/>
<path d="M391.687 578.056L322.822 460.551" stroke="#B2B2B2"/>
<path d="M852.199 466.005L734.693 534.869" stroke="#B2B2B2"/>
<path d="M783.335 348.499L665.829 417.364" stroke="#B2B2B2"/>
<path d="M734.693 534.869L665.829 417.364" stroke="#B2B2B2"/>
<path d="M852.199 466.005L783.335 348.499" stroke="#B2B2B2"/>
<path d="M734.693 534.869L578.018 626.689" stroke="#B2B2B2"/>
<path d="M665.829 417.364L509.154 509.183" stroke="#B2B2B2"/>
<path d="M578.018 626.689L509.154 509.183" stroke="#B2B2B2"/>
<path d="M734.693 534.869L665.828 417.364" stroke="url(#paint6_linear_802_235)"/>
<path d="M234.974 669.866L352.48 601.002" stroke="#B2B2B2"/>
<path d="M303.839 787.372L421.345 718.508" stroke="#B2B2B2"/>
<path d="M352.48 601.002L421.344 718.508" stroke="#B2B2B2"/>
<path d="M234.974 669.866L303.838 787.372" stroke="#B2B2B2"/>
<path d="M352.48 601.002L509.155 509.182" stroke="url(#paint7_linear_802_235)"/>
<path d="M421.345 718.507L578.019 626.688" stroke="#B2B2B2"/>
<path d="M352.48 601.002L421.345 718.508" stroke="#B2B2B2"/>
<path d="M578.019 626.688L695.525 557.824" stroke="#B2B2B2"/>
<path d="M646.883 744.194L764.389 675.33" stroke="#B2B2B2"/>
<path d="M695.524 557.824L764.389 675.33" stroke="#B2B2B2"/>
<path d="M695.525 557.824L852.199 466.005" stroke="url(#paint8_linear_802_235)"/>
<path d="M764.389 675.33L921.064 583.511" stroke="url(#paint9_linear_802_235)"/>
<path d="M852.199 466.005L921.063 583.511" stroke="#B2B2B2"/>
<path d="M695.525 557.824L764.389 675.33" stroke="#B2B2B2"/>
<path d="M646.883 744.194L529.377 813.059" stroke="#B2B2B2"/>
<path d="M578.019 626.688L460.513 695.553" stroke="#B2B2B2"/>
<path d="M529.378 813.059L460.513 695.553" stroke="#B2B2B2"/>
<path d="M529.378 813.059L372.703 904.878" stroke="#B2B2B2"/>
<path d="M460.513 695.553L303.839 787.372" stroke="#B2B2B2"/>
<path d="M372.703 904.878L303.839 787.372" stroke="#B2B2B2"/>
<path d="M529.378 813.059L460.513 695.553" stroke="url(#paint10_linear_802_235)"/>
</g>
<defs>
<linearGradient id="paint0_linear_802_235" x1="621.652" y1="107.235" x2="562.83" y2="160.097" gradientUnits="userSpaceOnUse">
<stop stop-color="#13B0F5"/>
<stop offset="1" stop-color="#CA24B4"/>
</linearGradient>
<linearGradient id="paint1_linear_802_235" x1="527.722" y1="183.954" x2="427.61" y2="316.566" gradientUnits="userSpaceOnUse">
<stop stop-color="#E70FAA"/>
<stop offset="1" stop-color="#13B0F5"/>
</linearGradient>
<linearGradient id="paint2_linear_802_235" x1="603.264" y1="275.875" x2="550.402" y2="217.053" gradientUnits="userSpaceOnUse">
<stop stop-color="#13B0F5"/>
<stop offset="1" stop-color="#CA24B4"/>
</linearGradient>
<linearGradient id="paint3_linear_802_235" x1="246.778" y1="374.349" x2="325.208" y2="303.866" gradientUnits="userSpaceOnUse">
<stop stop-color="#00C0FD"/>
<stop offset="0.421875" stop-color="#E70FAA"/>
<stop offset="1" stop-color="#00C0FD"/>
</linearGradient>
<linearGradient id="paint4_linear_802_235" x1="708.247" y1="254.994" x2="761.109" y2="313.816" gradientUnits="userSpaceOnUse">
<stop stop-color="#13B0F5"/>
<stop offset="0.0001" stop-color="#505685"/>
<stop offset="0.317708" stop-color="#CA24B4"/>
<stop offset="1" stop-color="#13B0F5"/>
</linearGradient>
<linearGradient id="paint5_linear_802_235" x1="235.012" y1="669.876" x2="134.428" y2="594.956" gradientUnits="userSpaceOnUse">
<stop stop-color="#8E34FF"/>
<stop offset="0.494792" stop-color="#CA24B4"/>
<stop offset="1" stop-color="#8E34FF"/>
</linearGradient>
<linearGradient id="paint6_linear_802_235" x1="740.955" y1="510.878" x2="688.092" y2="452.055" gradientUnits="userSpaceOnUse">
<stop stop-color="#CA24B4"/>
<stop offset="0.234375" stop-color="#13B0F5"/>
</linearGradient>
<linearGradient id="paint7_linear_802_235" x1="392.549" y1="577.857" x2="465.923" y2="479.796" gradientUnits="userSpaceOnUse">
<stop stop-color="#13B0F5"/>
<stop offset="0.75" stop-color="#CA24B4"/>
<stop offset="1" stop-color="#13B0F5"/>
</linearGradient>
<linearGradient id="paint8_linear_802_235" x1="727.514" y1="566.173" x2="805.944" y2="495.69" gradientUnits="userSpaceOnUse">
<stop stop-color="#8643DC"/>
<stop offset="0.0001" stop-color="#8643DC"/>
<stop offset="0.317708" stop-color="#CA24B4"/>
<stop offset="1" stop-color="#8643DC"/>
</linearGradient>
<linearGradient id="paint9_linear_802_235" x1="796.378" y1="683.679" x2="874.808" y2="613.196" gradientUnits="userSpaceOnUse">
<stop stop-color="#8643DC"/>
<stop offset="0.0001" stop-color="#8643DC"/>
<stop offset="0.317708" stop-color="#CA24B4"/>
<stop offset="1" stop-color="#8643DC"/>
</linearGradient>
<linearGradient id="paint10_linear_802_235" x1="529.378" y1="813.059" x2="428.793" y2="738.139" gradientUnits="userSpaceOnUse">
<stop stop-color="#13B0F5"/>
<stop offset="0.0582928" stop-color="#CA24B4"/>
<stop offset="1" stop-color="#13B0F5"/>
</linearGradient>
</defs>
</svg>
