<svg width="120" height="164" viewBox="0 0 120 164" fill="none" xmlns="http://www.w3.org/2000/svg">
<g clip-path="url(#clip0_648_245)">
<path d="M68.7673 118.279C68.9473 117.872 69.4015 117.589 69.7315 117.247C74.7666 111.967 79.8446 106.735 84.8111 101.391C86.3653 99.956 87.5662 98.1805 88.32 96.2038C89.0739 94.227 89.3601 92.1027 89.1563 89.997C89.0004 89.0953 88.7958 88.2026 88.5435 87.323C87.1894 88.6086 85.9296 89.7784 84.6611 90.9569C82.6899 92.7909 80.7273 94.6336 78.739 96.4462C77.5665 97.6416 76.059 98.4532 74.4156 98.7738C72.7721 99.0944 71.0701 98.9089 69.5344 98.2417C67.9797 97.6706 66.627 96.6554 65.6443 95.3222C64.6616 93.9891 64.092 92.3966 64.0064 90.7426C63.9604 90.5298 63.8988 90.3207 63.8222 90.117C62.3095 91.4025 60.8611 92.5852 59.4256 93.8022L29.5877 119.085C29.382 119.261 29.1591 119.479 28.9663 119.651H68.7459L68.6859 119.612C68.4716 119.462 68.583 118.674 68.7673 118.279V118.279Z" fill="#FFCEBF"/>
<path d="M27.1434 118.279C27.4972 117.818 27.9243 117.418 28.4075 117.096L69.6997 82.0643C72.5165 79.6732 75.3205 77.2692 78.1116 74.8523C78.4565 74.6118 78.7267 74.2792 78.8915 73.8924C79.5591 70.9832 79.6537 67.9717 79.17 65.0263C78.7415 65.3263 78.5101 65.4548 78.313 65.6648C74.932 68.6902 71.5681 71.7412 68.1699 74.7495C67.0442 75.8824 65.5882 76.6293 64.0113 76.8826C62.4344 77.1359 60.8177 76.8827 59.3938 76.1593C57.9411 75.4735 56.7253 74.371 55.9012 72.9921C55.077 71.6131 54.6818 70.0202 54.7658 68.4159V67.0275C54.1444 67.4817 53.6902 67.786 53.266 68.1288C36.7394 81.3615 20.2156 94.5843 3.69472 107.797C2.94909 108.393 2.05777 109.721 1.08074 108.431C0.103713 107.141 1.59068 106.61 2.34059 106.01C19.9528 91.8774 37.5736 77.7577 55.2029 63.6508C58.074 61.3496 58.2625 60.3854 56.3942 56.7302L55.28 57.7758C52.2247 60.6168 49.135 63.4194 46.1268 66.3076C44.8929 67.4979 43.3474 68.3148 41.6689 68.6642C39.9904 69.0135 38.2473 68.881 36.6409 68.2819C35.0345 67.6828 33.6304 66.6416 32.5905 65.2785C31.5507 63.9153 30.9176 62.2859 30.7644 60.5783C30.1944 61.0068 29.7016 61.3196 29.2345 61.6839L3.09479 81.9443C2.64395 82.3865 2.1298 82.7591 1.56925 83.0499C1.14619 83.1778 0.69189 83.1551 0.283691 82.9856V119.671H27.0919C26.9923 119.451 26.945 119.211 26.954 118.969C26.9629 118.727 27.0277 118.491 27.1434 118.279V118.279Z" fill="#FFCEBF"/>
<path d="M99.5652 1.82096C98.8367 4.20782 98.1297 6.59897 97.4912 9.01154C96.9014 10.7164 96.97 12.5802 97.6836 14.2371C98.3971 15.8941 99.704 17.2246 101.348 17.9676C106.376 20.6107 112.042 21.798 117.709 21.3958V2.22806C117.646 1.80781 117.669 1.37914 117.777 0.968207C117.897 0.73576 118.049 0.520916 118.227 0.329712H99.5481C99.8352 0.663958 99.7366 1.25103 99.5652 1.82096V1.82096Z" fill="#FF6196"/>
<path d="M62.0512 42.9976C61.9624 45.137 61.214 47.1966 59.9086 48.894C55.2421 54.918 49.883 60.372 43.9419 65.1435C42.9839 66.0304 41.7695 66.591 40.4731 66.745C39.1767 66.899 37.8648 66.6384 36.7256 66.0006C35.5918 65.5162 34.6358 64.6926 33.989 63.6429C33.3421 62.5932 33.0362 61.369 33.1132 60.1384C33.2505 58.6271 33.878 57.202 34.9002 56.0803C41.5437 49.7456 48.7416 44.019 56.4076 38.9695C56.9097 38.5758 57.5228 38.3499 58.1603 38.3238C58.7978 38.2976 59.4274 38.4725 59.96 38.8238C60.6601 39.2585 61.2261 39.8786 61.5952 40.6153C61.9643 41.352 62.1222 42.1766 62.0512 42.9976V42.9976Z" fill="#FF87AF"/>
<path d="M56.9126 68.9701C56.8131 68.0229 56.9347 67.0655 57.2678 66.1732C57.6009 65.281 58.1365 64.4781 58.8324 63.8278C65.3372 57.8282 72.3163 52.3639 79.7013 47.4884C79.9241 47.3469 80.1298 47.2055 80.3741 47.0598C81.0192 46.5941 81.8008 46.3561 82.5959 46.3833C83.3911 46.4104 84.1546 46.7012 84.7664 47.2098C85.3584 47.7113 85.7772 48.3866 85.9634 49.1397C86.1496 49.8929 86.0936 50.6855 85.8034 51.405C84.8691 54.5169 83.1448 57.3338 80.7983 59.5812C76.0329 64.2759 71.1753 68.8763 66.2286 73.3796C65.4836 74.1457 64.5051 74.6423 63.4469 74.7912C62.3888 74.9402 61.3111 74.733 60.3836 74.2023C59.409 73.6959 58.5791 72.95 57.9719 72.0347C57.3648 71.1195 57.0002 70.0649 56.9126 68.9701Z" fill="#FF87AF"/>
<path d="M87.8344 71.8016C86.6346 73.0871 85.4004 74.3127 84.2477 75.6282C83.9011 76.1367 83.6135 76.683 83.3907 77.2566C84.0249 77.4452 84.7662 77.9423 85.2804 77.7666C87.8987 76.8881 90.4527 75.8339 93.3281 74.7241C92.7024 76.1639 92.231 77.4923 91.5668 78.7093C88.8305 83.3079 85.4038 87.4587 81.4066 91.0164C79.8868 92.482 78.3084 93.8832 76.6715 95.2202C75.8046 95.9396 74.7622 96.4158 73.6509 96.6001C72.5396 96.7844 71.3992 96.6702 70.3465 96.2692C69.2938 95.8682 68.3665 95.1947 67.6595 94.3177C66.9525 93.4407 66.4912 92.3916 66.3227 91.2778C66.254 90.6585 66.3087 90.0318 66.4838 89.4338C66.6589 88.8358 66.9507 88.2784 67.3426 87.7939C73.174 81.4615 79.8384 75.9504 87.1531 71.4116C87.242 71.3771 87.3362 71.3583 87.4316 71.3559L87.8344 71.8016Z" fill="#FF87AF"/>
<path d="M97.6724 54.7336L105.004 22.166L110.147 23.3701L107.494 31.4306C105.017 38.9297 102.51 46.4288 100.093 53.9365C99.6221 55.3249 99.0051 55.582 97.6724 54.7336V54.7336Z" fill="#FF6196"/>
<path d="M89.3857 73.8886C90.1614 70.9275 90.9327 68.1893 91.5841 65.421C92.2189 62.7365 93.4263 60.2208 95.1236 58.0462C96.1649 56.6792 97.3348 57.2234 98.5304 57.5191C99.636 57.7891 99.9145 58.599 99.9616 59.6617C100.136 62.6006 99.241 65.5032 97.4419 67.8336C95.3002 70.4888 92.5317 72.5696 89.3857 73.8886V73.8886Z" fill="#FF6196"/>
<path d="M119.944 3.83942C120.008 2.88504 119.983 1.9268 119.871 0.976906C119.783 0.711577 119.607 0.483682 119.374 0.32984C119.184 0.175162 118.961 0.0653133 118.723 0.00844948C118.585 -0.0172618 118.393 0.12415 118.208 0.325554C118.03 0.516759 117.878 0.731603 117.758 0.964051C117.65 1.37499 117.627 1.80365 117.69 2.2239V21.3873C112.023 21.7896 106.357 20.6023 101.329 17.9592C99.685 17.2161 98.3781 15.8856 97.6646 14.2287C96.951 12.5718 96.8824 10.708 97.4722 9.0031C98.1107 6.59053 98.8178 4.19938 99.5462 1.81252C99.7177 1.24259 99.8162 0.655515 99.5462 0.321269C99.3961 0.158555 99.1888 0.0602733 98.9677 0.0470166C98.6847 0.0500699 98.4105 0.146474 98.1878 0.321269C97.8674 0.512949 97.6121 0.796654 97.4551 1.13546C96.598 3.70658 95.8438 6.30342 95.1882 8.92596C94.9407 9.95942 94.874 11.0279 94.9911 12.0842C95.1569 13.9953 95.8676 15.8186 97.0389 17.3378C98.2102 18.857 99.7928 20.0081 101.599 20.6546C102.409 20.9931 102.884 21.3274 102.657 22.3944C102.344 23.7485 102.04 25.1026 101.732 26.461C99.632 35.6657 97.5436 44.8746 95.4667 54.0878C95.4082 54.4985 95.2275 54.8822 94.9482 55.189C93.5793 56.2771 92.4291 57.6149 91.5586 59.1314C90.4493 61.1328 89.6817 63.3052 89.2875 65.5593C89.2118 66.2782 88.952 66.9656 88.5331 67.5548C88.1143 68.1441 87.5505 68.6154 86.8963 68.9231C85.1094 69.8273 83.4682 70.9972 81.4841 72.2142C81.6164 69.8282 81.5906 67.4361 81.407 65.0536C81.256 64.3207 81.288 63.5619 81.5003 62.8443C81.7126 62.1267 82.0985 61.4726 82.624 60.9398C85.2375 58.3506 87.1005 55.1015 88.0148 51.5381C88.2878 50.712 88.3627 49.8333 88.2333 48.973C88.104 48.1126 87.774 47.2948 87.27 46.5856C86.7661 45.8764 86.1023 45.2958 85.3324 44.8906C84.5626 44.4854 83.7081 44.2671 82.8382 44.2532C81.4298 44.2375 80.047 44.6305 78.8573 45.3845C74.7683 48.1767 70.7504 51.0716 66.8073 54.0663C64.4633 55.8318 62.2564 57.7859 59.9852 59.6371C59.8873 59.532 59.8025 59.4154 59.7324 59.29C59.689 58.9745 59.604 58.6661 59.4796 58.373C57.5812 55.4419 58.8968 53.3121 60.958 51.1224C63.1053 48.8714 64.2919 45.8728 64.2661 42.762C64.3327 41.1769 63.8363 39.6195 62.8649 38.3653C62.3474 37.7287 61.7096 37.2001 60.988 36.8098C59.9629 36.2488 58.7908 36.0146 57.6289 36.1387C56.467 36.2628 55.3708 36.7392 54.4873 37.504L53.2917 38.361C50.5621 40.3151 47.7981 42.2177 45.1713 44.3089C41.3364 47.3706 37.5841 50.5342 33.9183 53.7964C32.2042 55.309 30.953 57.3745 29.1746 58.7801C19.9014 66.1035 10.5297 73.294 1.1922 80.5318C0.871132 80.7233 0.575909 80.9552 0.313735 81.2217C0.286745 81.2607 0.263774 81.3023 0.245172 81.346C0.0480521 81.8045 -0.119071 82.5629 0.112331 82.8415C0.169054 82.9019 0.23761 82.9501 0.313735 82.9829C0.721934 83.1523 1.17623 83.175 1.5993 83.0472C2.15985 82.7564 2.67399 82.3838 3.12483 81.9416L29.2646 61.6811C29.7317 61.3169 30.2245 60.9869 30.7944 60.5756C30.9476 62.2832 31.5807 63.9126 32.6206 65.2757C33.6604 66.6389 35.0646 67.6801 36.671 68.2792C38.2774 68.8783 40.0204 69.0108 41.6989 68.6614C43.3774 68.3121 44.9229 67.4951 46.1569 66.3049C49.1565 63.4166 52.2547 60.6141 55.3101 57.773L56.4242 56.7274C58.2926 60.3827 58.104 61.3469 55.2329 63.648C37.5893 77.7664 19.9585 91.8876 2.34064 106.012C1.59073 106.612 0.108046 107.156 1.08079 108.433C2.05353 109.71 2.94914 108.394 3.69476 107.799C20.2242 94.5972 36.7423 81.3788 53.2489 68.1432C53.6774 67.8004 54.1274 67.4962 54.7487 67.0419V68.4303C54.6647 70.0346 55.0599 71.6275 55.8841 73.0065C56.7082 74.3854 57.924 75.4879 59.3767 76.1737C60.8007 76.8971 62.4173 77.1504 63.9942 76.897C65.5711 76.6437 67.0271 75.8969 68.1528 74.7639C71.551 71.7642 74.9149 68.7046 78.2959 65.6792C78.5102 65.4864 78.7587 65.3407 79.153 65.0407C79.6367 67.9862 79.542 70.9976 78.8744 73.9068C78.7096 74.2936 78.4394 74.6262 78.0945 74.8667C75.3005 77.2807 72.4966 79.6847 69.6826 82.0787L28.4075 117.115C27.9243 117.437 27.4972 117.837 27.1434 118.297C27.0305 118.507 26.9672 118.741 26.9582 118.979C26.9493 119.218 26.9951 119.455 27.092 119.673C27.2856 119.818 27.5094 119.918 27.7468 119.964C27.9842 120.011 28.2291 120.004 28.4633 119.943C28.648 119.889 28.8181 119.794 28.9603 119.664C29.1746 119.493 29.3889 119.274 29.5817 119.099L59.4196 93.8159C60.8551 92.5989 62.3035 91.399 63.8162 90.1306C63.8928 90.3344 63.9544 90.5435 64.0005 90.7563C64.0861 92.4103 64.6556 94.0027 65.6383 95.3359C66.6211 96.6691 67.9737 97.6842 69.5284 98.2554C71.0641 98.9225 72.7662 99.1081 74.4096 98.7875C76.053 98.4669 77.5606 97.6553 78.733 96.4599C80.7213 94.6472 82.684 92.8046 84.6552 90.9705C85.9407 89.7921 87.1834 88.6094 88.5376 87.3367C88.7898 88.2163 88.9944 89.1089 89.1503 90.0106C89.3473 92.1094 89.0578 94.2254 88.3042 96.1941C87.5506 98.1629 86.3532 99.9313 84.8051 101.362C79.8386 106.71 74.7606 111.942 69.7255 117.217C69.3955 117.56 68.9413 117.843 68.7613 118.25C68.5813 118.657 68.4657 119.454 68.6799 119.626L68.7399 119.664C69.1892 119.883 69.6945 119.959 70.1883 119.883C70.3267 119.854 70.45 119.777 70.5354 119.664C70.6554 119.54 70.7711 119.386 70.8868 119.27C74.9663 115.053 79.0672 110.858 83.1168 106.612C84.7513 104.955 86.288 103.206 87.7191 101.371C89.5851 99.3049 90.8224 96.7492 91.2855 94.0042C91.7486 91.2592 91.4181 88.439 90.3331 85.8754C90.2164 85.3038 90.3304 84.7093 90.6502 84.2213C90.9287 83.7414 91.2372 83.2743 91.5543 82.8115C92.569 81.4941 93.4141 80.0544 94.0698 78.5263C95.3368 74.7758 97.2817 71.2899 99.8076 68.2418C100.969 66.7695 101.768 65.0449 102.14 63.2071C102.512 61.3693 102.447 59.4697 101.95 57.6616C101.775 56.9742 101.775 56.2536 101.95 55.5661C104.119 48.8512 106.351 42.1577 108.562 35.46L111.519 26.4867L112.432 23.7142C114.377 23.7142 116.211 23.6756 118.037 23.7142C119.554 23.7571 120.017 23.0457 120 21.5716C119.91 15.658 119.944 9.74872 119.944 3.83942V3.83942ZM43.9371 65.1436C42.9791 66.0304 41.7647 66.5911 40.4683 66.745C39.1719 66.899 37.86 66.6384 36.7208 66.0006C35.587 65.5162 34.631 64.6926 33.9842 63.6429C33.3373 62.5932 33.0314 61.369 33.1084 60.1385C33.2457 58.6271 33.8732 57.2021 34.8953 56.0804C41.5388 49.7456 48.7368 44.0191 56.4028 38.9695C56.8212 38.6738 57.2972 38.4693 57.7998 38.3696C58.1369 38.3074 58.4825 38.3074 58.8197 38.3696C59.2234 38.4482 59.6086 38.6024 59.9552 38.8238C60.656 39.2589 61.2224 39.8796 61.5916 40.6172C61.9607 41.3548 62.1182 42.1803 62.0464 43.0019C61.9576 45.1414 61.2092 47.201 59.9038 48.8984C55.237 54.9208 49.878 60.3733 43.9371 65.1436V65.1436ZM66.2202 73.4097C65.4752 74.1758 64.4966 74.6724 63.4385 74.8214C62.3803 74.9703 61.3027 74.7632 60.3752 74.2325C59.3988 73.7249 58.5678 72.977 57.9605 72.0594C57.3533 71.1417 56.9897 70.0845 56.9042 68.9874C56.8047 68.0402 56.9263 67.0828 57.2594 66.1906C57.5925 65.2983 58.1281 64.4954 58.8239 63.8452C65.3288 57.8455 72.3078 52.3812 79.6929 47.5057C79.9157 47.3643 80.1214 47.2229 80.3657 47.0772C81.0107 46.6115 81.7923 46.3735 82.5875 46.4006C83.3826 46.4278 84.1462 46.7185 84.758 47.2271C85.35 47.7286 85.7688 48.4039 85.955 49.157C86.1412 49.9102 86.0852 50.7028 85.795 51.4224C84.8607 54.5342 83.1364 57.3511 80.7899 59.5985C76.0633 64.3208 71.1482 68.8674 66.2288 73.3926L66.2202 73.4097ZM91.5501 78.7277C88.8175 83.319 85.3967 87.4639 81.407 91.0177C79.8871 92.4832 78.3088 93.8845 76.6718 95.2214C75.8049 95.9408 74.7625 96.417 73.6512 96.6014C72.5399 96.7857 71.3996 96.6715 70.3469 96.2705C69.2942 95.8694 68.3669 95.196 67.6599 94.3189C66.9529 93.4419 66.4915 92.3929 66.323 91.2791C66.2543 90.6598 66.3091 90.033 66.4842 89.435C66.6592 88.837 66.9511 88.2797 67.3429 87.7952C73.1743 81.4627 79.8387 75.9516 87.1534 71.4128C87.2424 71.3783 87.3366 71.3595 87.432 71.3571L87.8605 71.7857C86.6606 73.0712 85.4265 74.2968 84.2738 75.6123C83.9272 76.1208 83.6396 76.6671 83.4167 77.2407C84.0509 77.4293 84.7923 77.9264 85.3065 77.7507C87.3763 77.0565 89.4117 76.2508 91.5929 75.3938L93.3541 74.7082C92.6942 76.1651 92.2228 77.4935 91.5586 78.7105L91.5501 78.7277ZM97.4336 67.8647C95.8352 69.8996 93.8317 71.5806 91.5501 72.8012C90.8444 73.1955 90.1202 73.564 89.3775 73.9068C90.1402 70.9886 90.903 68.2846 91.5501 65.5507L91.5758 65.4393C92.2106 62.7547 93.418 60.239 95.1153 58.0644C96.1566 56.6974 97.3265 57.2417 98.5221 57.5373C99.6277 57.8073 99.9062 58.6172 99.9533 59.6799C100.129 62.6163 99.2372 65.5171 97.4422 67.8475L97.4336 67.8647ZM107.461 31.4404C104.984 38.9395 102.477 46.4387 100.06 53.9463C99.6062 55.3562 98.9892 55.6133 97.6565 54.7648L104.011 26.5125L104.988 22.1758L110.131 23.38L109.098 26.5125L107.461 31.4404Z" fill="black"/>
</g>
<defs>
<clipPath id="clip0_648_245">
<rect width="120" height="120" fill="white"/>
</clipPath>
</defs>
</svg>
