<svg width="30" height="30" viewBox="0 0 30 30" fill="none" xmlns="http://www.w3.org/2000/svg">
<g clip-path="url(#clip0_758_252)">
<path d="M14.93 0C10.9639 0.0185087 7.16654 1.60703 4.36862 4.41807C1.5707 7.22911 -4.31863e-05 11.0339 8.90544e-10 15C8.90551e-10 18.9782 1.58035 22.7936 4.3934 25.6066C7.20644 28.4196 11.0218 30 15 30C18.9782 30 22.7936 28.4196 25.6066 25.6066C28.4196 22.7936 30 18.9782 30 15C30 11.0218 28.4196 7.20644 25.6066 4.3934C22.7936 1.58035 18.9782 0 15 0L14.93 0ZM21.1325 9.03C21.2575 9.0275 21.5338 9.05875 21.7138 9.205C21.834 9.3084 21.9104 9.45362 21.9275 9.61125C21.9475 9.7275 21.9725 9.99375 21.9525 10.2013C21.7275 12.5738 20.75 18.3288 20.2525 20.985C20.0425 22.11 19.6287 22.4862 19.2275 22.5225C18.3575 22.6037 17.6963 21.9475 16.8525 21.395C15.5325 20.5287 14.7862 19.99 13.505 19.145C12.0237 18.17 12.9838 17.6325 13.8275 16.7575C14.0488 16.5275 17.8863 13.0362 17.9613 12.72C17.97 12.68 17.9787 12.5325 17.8912 12.455C17.8037 12.3775 17.6738 12.4037 17.58 12.425C17.4475 12.4558 15.3388 13.8496 11.2538 16.6062C10.6538 17.0187 10.1113 17.2188 9.62625 17.2063C9.09125 17.1963 8.06125 16.905 7.295 16.6562C6.355 16.35 5.60875 16.1888 5.67375 15.67C5.70708 15.4 6.07917 15.1238 6.79 14.8413C11.1625 12.9363 14.0783 11.6804 15.5375 11.0738C19.7025 9.34125 20.5688 9.04 21.1325 9.03Z" fill="#A7A7A7"/>
</g>
<defs>
<clipPath id="clip0_758_252">
<rect width="30" height="30" fill="white"/>
</clipPath>
</defs>
</svg>
