<?xml version="1.0" standalone="no"?>
<!DOCTYPE svg PUBLIC "-//W3C//DTD SVG 20010904//EN"
 "http://www.w3.org/TR/2001/REC-SVG-20010904/DTD/svg10.dtd">
<svg version="1.0" xmlns="http://www.w3.org/2000/svg"
 width="32.000000pt" height="32.000000pt" viewBox="0 0 32.000000 32.000000"
 preserveAspectRatio="xMidYMid meet">

<g transform="translate(0.000000,32.000000) scale(0.100000,-0.100000)"
fill="#000000" stroke="none">
<path d="M113 271 c-4 -14 -15 -21 -41 -23 -44 -4 -50 -21 -42 -132 l5 -71
133 -3 133 -3 -3 103 -3 103 -42 3 c-35 3 -43 7 -43 23 0 16 -7 19 -46 19 -37
0 -47 -4 -51 -19z m65 -18 c-10 -2 -26 -2 -35 0 -10 3 -2 5 17 5 19 0 27 -2
18 -5z m20 -75 c2 -15 -2 -37 -9 -49 -10 -19 -8 -25 12 -40 24 -19 24 -19 -41
-18 l-65 0 27 20 c25 19 27 22 14 41 -8 11 -13 27 -10 34 2 8 6 21 9 30 3 10
14 14 32 12 22 -2 29 -9 31 -30z"/>
</g>
</svg>
