<svg width="185" height="48" viewBox="0 0 185 48" fill="none" xmlns="http://www.w3.org/2000/svg">
<g id='logo'>
<path d="M48.0001 23.79C48.0001 29.2269 46.1149 34.4955 42.6658 38.6982C39.2167 42.901 34.4171 45.7778 29.0847 46.8385C23.7523 47.8991 18.2171 47.0781 13.4222 44.5152C8.62737 41.9522 4.86949 37.8061 2.78889 32.7831C0.7083 27.7601 0.433729 22.1711 2.01196 16.9683C3.5902 11.7656 6.92358 7.27102 11.4442 4.25047C15.9647 1.22992 21.3928 -0.129742 26.8035 0.403161C32.2141 0.936065 37.2726 3.32856 41.1171 7.17299L38.5486 9.74149C35.2984 6.49129 31.0218 4.4686 26.4474 4.01807C21.8731 3.56754 17.284 4.71703 13.4622 7.2707C9.64038 9.82436 6.82224 13.6242 5.48795 18.0227C4.15367 22.4213 4.3858 27.1464 6.14479 31.393C7.90379 35.6396 11.0808 39.1449 15.1345 41.3117C19.1883 43.4784 23.8679 44.1726 28.376 43.2759C32.8842 42.3791 36.942 39.947 39.8579 36.3939C42.7739 32.8408 44.3677 28.3865 44.3677 23.79H48.0001Z" fill="white"/>
<path d="M16.0158 39.0959C12.4747 37.133 9.72377 34.003 8.2317 30.2393C6.73962 26.4755 6.59873 22.3109 7.83304 18.4549C9.06735 14.5989 11.6005 11.2902 15.0008 9.09252C18.4012 6.89484 22.4583 5.94418 26.481 6.4025C30.5037 6.86083 34.243 8.69979 37.0619 11.6061C39.8807 14.5123 41.6046 18.3061 41.9399 22.3409C42.2751 26.3757 41.201 30.4019 38.9005 33.7336C36.6 37.0652 33.2155 39.4961 29.3236 40.6121L28.578 38.0119C31.8683 37.0684 34.7297 35.0133 36.6746 32.1966C38.6195 29.3799 39.5276 25.976 39.2442 22.5649C38.9607 19.1537 37.5033 15.9464 35.1202 13.4893C32.7371 11.0323 29.5757 9.47758 26.1748 9.0901C22.7739 8.70261 19.3439 9.50633 16.4691 11.3643C13.5944 13.2223 11.4528 16.0196 10.4093 19.2795C9.36573 22.5395 9.48484 26.0604 10.7463 29.2424C12.0077 32.4244 14.3335 35.0706 17.3272 36.73L16.0158 39.0959Z" fill="white"/>
<path d="M24.5001 11.29C27.392 11.29 30.1945 12.2927 32.43 14.1274C34.6655 15.962 36.1957 18.515 36.7599 21.3514C37.3241 24.1877 36.8873 27.132 35.5241 29.6825C34.1608 32.2329 31.9554 34.2318 29.2836 35.3385C26.6118 36.4452 23.6389 36.5912 20.8715 35.7518C18.1041 34.9123 15.7134 33.1392 14.1067 30.7346C12.5 28.3301 11.7768 25.4428 12.0603 22.5648C12.3437 19.6868 13.6163 16.9961 15.6612 14.9512L17.0274 16.3174C15.2986 18.0462 14.2227 20.321 13.9831 22.7542C13.7434 25.1873 14.3549 27.6283 15.7132 29.6612C17.0715 31.6941 19.0927 33.1931 21.4324 33.9028C23.772 34.6125 26.2854 34.4891 28.5442 33.5534C30.803 32.6178 32.6676 30.9279 33.8201 28.7717C34.9726 26.6154 35.3419 24.1263 34.8649 21.7283C34.3879 19.3304 33.0942 17.172 31.2043 15.6209C29.3143 14.0699 26.945 13.2221 24.5001 13.2221L24.5001 11.29Z" fill="white"/>
<path d="M17.0301 19.7342C17.9684 18.0059 19.477 16.6566 21.2987 15.9159C23.1204 15.1753 25.1426 15.0892 27.0206 15.6723C28.8987 16.2555 30.5165 17.4718 31.5983 19.114C32.6801 20.7562 33.159 22.7227 32.9535 24.6785C32.7479 26.6342 31.8706 28.4582 30.471 29.8396C29.0714 31.221 27.2361 32.0744 25.2778 32.2543C23.3195 32.4343 21.3595 31.9297 19.7315 30.8264C18.1036 29.7232 16.9086 28.0897 16.3501 26.2041L17.7273 25.7962C18.1914 27.3631 19.1845 28.7206 20.5373 29.6374C21.8902 30.5542 23.519 30.9736 25.1464 30.824C26.7737 30.6745 28.2989 29.9653 29.462 28.8173C30.6251 27.6694 31.3542 26.1536 31.525 24.5284C31.6958 22.9031 31.2978 21.2689 30.3988 19.9042C29.4998 18.5395 28.1554 17.5287 26.5947 17.0441C25.034 16.5595 23.3535 16.631 21.8397 17.2465C20.3258 17.862 19.0722 18.9833 18.2924 20.4195L17.0301 19.7342Z" fill="white"/>
<path d="M28.2197 26.3227C27.6338 27.1833 26.7676 27.8141 25.7687 28.1076C24.7698 28.4011 23.7001 28.3392 22.7418 27.9324C21.7834 27.5256 20.9958 26.7991 20.513 25.8767C20.0303 24.9543 19.8823 23.893 20.0943 22.8737C20.3064 21.8544 20.8652 20.9402 21.6757 20.2868C22.4863 19.6334 23.4983 19.2812 24.5393 19.2903C25.5804 19.2994 26.5861 19.6691 27.3851 20.3366C28.1841 21.0041 28.7269 21.9279 28.9211 22.9507L28.0935 23.1079C27.9356 22.2765 27.4944 21.5256 26.845 20.9831C26.1956 20.4406 25.3781 20.14 24.532 20.1326C23.6858 20.1253 22.8632 20.4115 22.2045 20.9426C21.5457 21.4737 21.0914 22.2168 20.9191 23.0453C20.7468 23.8737 20.867 24.7363 21.2594 25.4861C21.6518 26.2358 22.292 26.8263 23.0709 27.157C23.8498 27.4876 24.7193 27.5379 25.5312 27.2994C26.3431 27.0608 27.0471 26.5481 27.5234 25.8486L28.2197 26.3227Z" fill="white"/>
<path d="M23.7068 21.4192C24.2553 21.2357 24.8505 21.248 25.3909 21.4541C25.9313 21.6602 26.3836 22.0473 26.6706 22.5495C26.9576 23.0517 27.0616 23.6378 26.9649 24.208C26.8682 24.7783 26.5767 25.2974 26.1402 25.6768C25.7037 26.0563 25.1491 26.2726 24.571 26.289C23.9928 26.3054 23.4268 26.1209 22.9695 25.7668C22.5122 25.4127 22.1918 24.911 22.0629 24.3471C21.934 23.7833 22.0047 23.1922 22.2627 22.6746L23.1395 23.1117C22.9825 23.4265 22.9396 23.7859 23.018 24.1288C23.0963 24.4717 23.2912 24.7768 23.5693 24.9922C23.8474 25.2075 24.1916 25.3197 24.5432 25.3098C24.8948 25.2998 25.232 25.1682 25.4975 24.9375C25.763 24.7067 25.9402 24.391 25.999 24.0442C26.0578 23.6975 25.9946 23.341 25.82 23.0356C25.6455 22.7303 25.3705 22.4948 25.0418 22.3695C24.7132 22.2442 24.3512 22.2367 24.0177 22.3483L23.7068 21.4192Z" fill="white"/>
<circle cx="24.5001" cy="23.79" r="0.5" transform="rotate(-180 24.5001 23.79)" fill="white"/>
<path d="M77.83 19.65C77.83 20.71 77.58 21.71 77.08 22.65C76.58 23.59 75.78 24.36 74.68 24.96C73.58 25.54 72.17 25.83 70.45 25.83H66.67V34.29H63.25V13.44H70.45C72.05 13.44 73.4 13.72 74.5 14.28C75.62 14.82 76.45 15.56 76.99 16.5C77.55 17.44 77.83 18.49 77.83 19.65ZM70.45 23.04C71.75 23.04 72.72 22.75 73.36 22.17C74 21.57 74.32 20.73 74.32 19.65C74.32 17.37 73.03 16.23 70.45 16.23H66.67V23.04H70.45ZM88.2618 34.56C86.7018 34.56 85.2918 34.21 84.0318 33.51C82.7718 32.79 81.7818 31.79 81.0618 30.51C80.3418 29.21 79.9818 27.71 79.9818 26.01C79.9818 24.33 80.3518 22.84 81.0918 21.54C81.8318 20.24 82.8418 19.24 84.1218 18.54C85.4018 17.84 86.8318 17.49 88.4118 17.49C89.9918 17.49 91.4218 17.84 92.7018 18.54C93.9818 19.24 94.9918 20.24 95.7318 21.54C96.4718 22.84 96.8418 24.33 96.8418 26.01C96.8418 27.69 96.4618 29.18 95.7018 30.48C94.9418 31.78 93.9018 32.79 92.5818 33.51C91.2818 34.21 89.8418 34.56 88.2618 34.56ZM88.2618 31.59C89.1418 31.59 89.9618 31.38 90.7218 30.96C91.5018 30.54 92.1318 29.91 92.6118 29.07C93.0918 28.23 93.3318 27.21 93.3318 26.01C93.3318 24.81 93.1018 23.8 92.6418 22.98C92.1818 22.14 91.5718 21.51 90.8118 21.09C90.0518 20.67 89.2318 20.46 88.3518 20.46C87.4718 20.46 86.6518 20.67 85.8918 21.09C85.1518 21.51 84.5618 22.14 84.1218 22.98C83.6818 23.8 83.4618 24.81 83.4618 26.01C83.4618 27.79 83.9118 29.17 84.8118 30.15C85.7318 31.11 86.8818 31.59 88.2618 31.59ZM103.643 20.16C104.143 19.32 104.803 18.67 105.623 18.21C106.463 17.73 107.453 17.49 108.593 17.49V21.03H107.723C106.383 21.03 105.363 21.37 104.663 22.05C103.983 22.73 103.643 23.91 103.643 25.59V34.29H100.223V17.76H103.643V20.16ZM115.726 20.55V29.7C115.726 30.32 115.866 30.77 116.146 31.05C116.446 31.31 116.946 31.44 117.646 31.44H119.746V34.29H117.046C115.506 34.29 114.326 33.93 113.506 33.21C112.686 32.49 112.276 31.32 112.276 29.7V20.55H110.326V17.76H112.276V13.65H115.726V17.76H119.746V20.55H115.726ZM129.828 20.55H126.768V34.29H123.318V20.55H121.368V17.76H123.318V16.59C123.318 14.69 123.818 13.31 124.818 12.45C125.838 11.57 127.428 11.13 129.588 11.13V13.98C128.548 13.98 127.818 14.18 127.398 14.58C126.978 14.96 126.768 15.63 126.768 16.59V17.76H129.828V20.55ZM140.029 34.56C138.469 34.56 137.059 34.21 135.799 33.51C134.539 32.79 133.549 31.79 132.829 30.51C132.109 29.21 131.749 27.71 131.749 26.01C131.749 24.33 132.119 22.84 132.859 21.54C133.599 20.24 134.609 19.24 135.889 18.54C137.169 17.84 138.599 17.49 140.179 17.49C141.759 17.49 143.189 17.84 144.469 18.54C145.749 19.24 146.759 20.24 147.499 21.54C148.239 22.84 148.609 24.33 148.609 26.01C148.609 27.69 148.229 29.18 147.469 30.48C146.709 31.78 145.669 32.79 144.349 33.51C143.049 34.21 141.609 34.56 140.029 34.56ZM140.029 31.59C140.909 31.59 141.729 31.38 142.489 30.96C143.269 30.54 143.899 29.91 144.379 29.07C144.859 28.23 145.099 27.21 145.099 26.01C145.099 24.81 144.869 23.8 144.409 22.98C143.949 22.14 143.339 21.51 142.579 21.09C141.819 20.67 140.999 20.46 140.119 20.46C139.239 20.46 138.419 20.67 137.659 21.09C136.919 21.51 136.329 22.14 135.889 22.98C135.449 23.8 135.229 24.81 135.229 26.01C135.229 27.79 135.679 29.17 136.579 30.15C137.499 31.11 138.649 31.59 140.029 31.59ZM155.41 12.09V34.29H151.99V12.09H155.41ZM161.64 15.57C161.02 15.57 160.5 15.36 160.08 14.94C159.66 14.52 159.45 14 159.45 13.38C159.45 12.76 159.66 12.24 160.08 11.82C160.5 11.4 161.02 11.19 161.64 11.19C162.24 11.19 162.75 11.4 163.17 11.82C163.59 12.24 163.8 12.76 163.8 13.38C163.8 14 163.59 14.52 163.17 14.94C162.75 15.36 162.24 15.57 161.64 15.57ZM163.32 17.76V34.29H159.9V17.76H163.32ZM174.981 34.56C173.421 34.56 172.011 34.21 170.751 33.51C169.491 32.79 168.501 31.79 167.781 30.51C167.061 29.21 166.701 27.71 166.701 26.01C166.701 24.33 167.071 22.84 167.811 21.54C168.551 20.24 169.561 19.24 170.841 18.54C172.121 17.84 173.551 17.49 175.131 17.49C176.711 17.49 178.141 17.84 179.421 18.54C180.701 19.24 181.711 20.24 182.451 21.54C183.191 22.84 183.561 24.33 183.561 26.01C183.561 27.69 183.181 29.18 182.421 30.48C181.661 31.78 180.621 32.79 179.301 33.51C178.001 34.21 176.561 34.56 174.981 34.56ZM174.981 31.59C175.861 31.59 176.681 31.38 177.441 30.96C178.221 30.54 178.851 29.91 179.331 29.07C179.811 28.23 180.051 27.21 180.051 26.01C180.051 24.81 179.821 23.8 179.361 22.98C178.901 22.14 178.291 21.51 177.531 21.09C176.771 20.67 175.951 20.46 175.071 20.46C174.191 20.46 173.371 20.67 172.611 21.09C171.871 21.51 171.281 22.14 170.841 22.98C170.401 23.8 170.181 24.81 170.181 26.01C170.181 27.79 170.631 29.17 171.531 30.15C172.451 31.11 173.601 31.59 174.981 31.59Z" fill="white"/>
 </g>

<g id='gitHub'>
<path fill-rule="evenodd" clip-rule="evenodd" d="M44 0C19.69 0 0 19.69 0 44C0 63.47 12.595 79.915 30.085 85.745C32.285 86.13 33.11 84.81 33.11 83.655C33.11 82.61 33.055 79.145 33.055 75.46C22 77.495 19.14 72.765 18.26 70.29C17.765 69.025 15.62 65.12 13.75 64.075C12.21 63.25 10.01 61.215 13.695 61.16C17.16 61.105 19.635 64.35 20.46 65.67C24.42 72.325 30.745 70.455 33.275 69.3C33.66 66.44 34.815 64.515 36.08 63.415C26.29 62.315 16.06 58.52 16.06 41.69C16.06 36.905 17.765 32.945 20.57 29.865C20.13 28.765 18.59 24.255 21.01 18.205C21.01 18.205 24.695 17.05 33.11 22.715C36.63 21.725 40.37 21.23 44.11 21.23C47.85 21.23 51.59 21.725 55.11 22.715C63.525 16.995 67.21 18.205 67.21 18.205C69.63 24.255 68.09 28.765 67.65 29.865C70.455 32.945 72.16 36.85 72.16 41.69C72.16 58.575 61.875 62.315 52.085 63.415C53.68 64.79 55.055 67.43 55.055 71.555C55.055 77.44 55 82.17 55 83.655C55 84.81 55.825 86.185 58.025 85.745C66.7597 82.796 74.3497 77.1822 79.7268 69.6937C85.1039 62.2052 87.9974 53.219 88 44C88 19.69 68.31 0 44 0Z" fill="#FFFEFE"/>
</g>

<g id='bootstrap'>
<path d="M0 75.7821C0 81.9781 5.08028 87 11.3468 87H76.6528C82.9204 87 88 81.9774 88 75.7821V11.2182C88 5.02187 82.9197 0 76.6532 0H11.3472C5.07959 0 0 5.02255 0 11.2179V75.7818V75.7821Z" fill="#563D7C"/>
<path d="M36.4918 38.4832V26.1629H47.4612C48.5062 26.1629 49.5134 26.2489 50.4834 26.4212C51.4535 26.5931 52.3119 26.9003 53.0581 27.3431C53.8041 27.786 54.4012 28.4007 54.8491 29.1875C55.2966 29.9746 55.5208 30.9829 55.5208 32.2121C55.5208 34.4255 54.8491 36.0241 53.5057 37.0076C52.1627 37.9915 50.4463 38.4832 48.3567 38.4832H36.4918ZM24.7758 17.1621V69.8379H50.5955C52.9835 69.8379 55.3094 69.5429 57.5729 68.9526C59.8365 68.3623 61.8513 67.4525 63.6174 66.223C65.3833 64.9934 66.7889 63.407 67.8335 61.4645C68.8785 59.5216 69.4007 57.2222 69.4007 54.5663C69.4007 51.2709 68.5922 48.4553 66.9755 46.1192C65.3585 43.7828 62.9083 42.1474 59.6248 41.2129C62.0128 40.0819 63.8165 38.6307 65.0354 36.8601C66.254 35.0895 66.8635 32.8765 66.8635 30.2203C66.8635 27.7612 66.453 25.6956 65.6322 24.0232C64.8113 22.3512 63.6546 21.0108 62.162 20.0025C60.6698 18.9942 58.8789 18.2686 56.7892 17.8262C54.6999 17.3833 52.3864 17.1621 49.8492 17.1621H24.7758ZM36.4918 60.8371V46.3771H49.2521C51.7894 46.3771 53.8292 46.9548 55.3716 48.111C56.9136 49.2668 57.685 51.1971 57.685 53.9023C57.685 55.2797 57.4485 56.4107 56.9759 57.296C56.5032 58.1813 55.869 58.8823 55.0729 59.3986C54.2771 59.9151 53.3565 60.2839 52.3118 60.5054C51.2668 60.7263 50.1727 60.8371 49.0284 60.8371H36.4918Z" fill="white"/>
</g>

<g id='git'>
<path d="M103.02 47.8219L57.1758 1.98038C54.5372 -0.6598 50.2552 -0.6598 47.6134 1.98038L38.0937 11.5001L50.1699 23.5763C52.9762 22.6281 56.1943 23.2642 58.4313 25.5012C60.6789 27.7525 61.3106 30.9981 60.3393 33.8134L71.9775 45.452C74.7932 44.482 78.0421 45.1095 80.291 47.3621C83.434 50.5039 83.434 55.596 80.291 58.7399C77.1471 61.8841 72.055 61.8841 68.9095 58.7399C66.5454 56.3733 65.9613 52.9013 67.1582 49.9888L56.3046 39.1352L56.3034 67.6973C57.0902 68.0863 57.8088 68.6002 58.4313 69.2189C61.5743 72.3607 61.5743 77.4532 58.4313 80.5995C55.2874 83.7422 50.1929 83.7422 47.0535 80.5995C43.9105 77.4532 43.9105 72.3611 47.0535 69.2193C47.8067 68.4658 48.7019 67.869 49.6871 67.4635V38.6352C48.7004 38.2324 47.8048 37.6353 47.0535 36.8793C44.6722 34.5013 44.0996 31.0071 45.3198 28.0831L33.4154 16.1775L1.98105 47.6099C-0.660352 50.2525 -0.660352 54.5349 1.98105 57.1755L47.8259 103.018C50.4652 105.658 54.7464 105.658 57.3891 103.018L103.019 57.3884C105.66 54.747 105.66 50.4621 103.019 47.8219" fill="#DE4C36"/>
</g>

<g id='react'>
<path d="M92.9055 32.7027C91.703 32.2886 90.4904 31.905 89.2686 31.5522C89.4739 30.7106 89.6628 29.8791 89.8305 29.0622C92.5838 15.6483 90.7839 4.84172 84.636 1.28369C78.7415 -2.12728 69.1016 1.42943 59.3658 9.93336C58.4063 10.773 57.4681 11.6368 56.5521 12.5239C55.9389 11.934 55.3148 11.3555 54.6803 10.7888C44.4767 1.6961 34.2492 -2.13614 28.108 1.43209C22.2188 4.85368 20.475 15.0126 22.9537 27.7253C23.2003 28.9844 23.4788 30.2369 23.7888 31.4818C22.3411 31.8947 20.9442 32.3341 19.6073 32.8019C7.64437 36.9881 0.00469971 43.5482 0.00469971 50.3528C0.00469971 57.3808 8.20623 64.4299 20.6661 68.7043C21.6762 69.0494 22.6948 69.3692 23.7208 69.6633C23.3876 71.0041 23.0918 72.354 22.8337 73.7113C20.4706 86.2034 22.3159 96.1222 28.1892 99.5221C34.2554 103.033 44.4369 99.4247 54.3505 90.7267C55.1544 90.0196 55.9406 89.2924 56.7083 88.5459C57.7003 89.5065 58.7188 90.4392 59.7626 91.3429C69.3659 99.6364 78.8501 102.985 84.7177 99.5762C90.7781 96.0549 92.7479 85.3994 90.1907 72.4355C89.9892 71.4199 89.7633 70.4093 89.5131 69.4046C90.2282 69.192 90.9299 68.9732 91.6141 68.7455C104.567 64.4384 112.995 57.4747 112.995 50.3528C112.995 43.5234 105.109 36.919 92.9055 32.7027ZM90.0962 64.1473C89.4783 64.3524 88.8445 64.5504 88.1983 64.7431C86.7683 60.1995 84.8386 55.3683 82.4768 50.3763C84.7305 45.5035 86.586 40.7339 87.9759 36.2199C89.1318 36.5557 90.2533 36.9097 91.3347 37.2831C101.791 40.8961 108.169 46.2371 108.169 50.3528C108.169 54.7366 101.281 60.4276 90.0962 64.1473ZM85.4556 73.3764C86.5864 79.1086 86.7475 84.2915 85.9985 88.3435C85.3259 91.9843 83.9726 94.4114 82.299 95.3838C78.7384 97.4525 71.1235 94.7636 62.9109 87.6706C61.9401 86.8304 60.9927 85.9633 60.0698 85.0703C63.2539 81.5756 66.4357 77.513 69.5412 73.0008C75.0036 72.5144 80.1641 71.7188 84.8439 70.633C85.0693 71.5425 85.2733 72.4572 85.4556 73.3764ZM38.5257 95.0263C35.0468 96.2591 32.2759 96.2946 30.6009 95.3253C27.0368 93.2623 25.5551 85.298 27.5762 74.615C27.8164 73.3526 28.0915 72.0972 28.4011 70.8501C33.0293 71.8778 38.1523 72.6167 43.6275 73.0623C46.7541 77.4776 50.0278 81.5357 53.327 85.0893C52.6259 85.7702 51.9081 86.4337 51.1744 87.0792C46.7903 90.9252 42.3974 93.6539 38.5257 95.0263ZM22.2277 64.1203C16.718 62.2301 12.168 59.7738 9.04925 57.0933C6.24655 54.6848 4.83196 52.2931 4.83196 50.3528C4.83196 46.2234 10.9657 40.9563 21.1962 37.3766C22.4378 36.9424 23.7371 36.5327 25.0855 36.1482C26.4997 40.764 28.3543 45.5903 30.5925 50.4707C28.3252 55.4232 26.4441 60.3266 25.0162 64.997C24.0797 64.7277 23.1499 64.4354 22.2277 64.1203ZM27.6909 26.7946C25.5675 15.903 26.9777 7.687 30.5267 5.62491C34.3066 3.42861 42.6653 6.56005 51.4755 14.4115C52.05 14.9246 52.6152 15.4482 53.1708 15.9818C49.8879 19.5199 46.6442 23.548 43.5454 27.9371C38.2313 28.4314 33.1445 29.2252 28.4677 30.2888C28.1796 29.131 27.9206 27.966 27.6909 26.795V26.7946ZM76.4301 38.8738C75.3254 36.9588 74.1798 35.0679 72.994 33.2023C76.5991 33.6599 80.0533 34.2673 83.2969 35.0097C82.3232 38.1425 81.1095 41.4175 79.6808 44.7753C78.6364 42.7866 77.5527 40.8191 76.4301 38.8738ZM56.5543 19.4442C58.7806 21.8651 61.0104 24.5677 63.2035 27.5003C58.7545 27.2894 54.2981 27.2885 49.849 27.4976C52.0444 24.5921 54.2932 21.893 56.5543 19.4442ZM36.551 38.9071C35.4424 40.8366 34.3789 42.7919 33.3612 44.7713C31.9559 41.4254 30.7532 38.1354 29.7711 34.9583C32.9949 34.2345 36.4327 33.6427 40.0149 33.1935C38.8158 35.0704 37.6609 36.9753 36.551 38.9066V38.9071ZM40.1177 67.8569C36.4168 67.4422 32.9273 66.881 29.7045 66.1766C30.702 62.9429 31.9312 59.5828 33.367 56.1652C34.3886 58.1461 35.4566 60.1025 36.57 62.033C37.7149 64.0175 38.9004 65.9613 40.1177 67.8569ZM56.6876 81.6026C54.3995 79.1255 52.1177 76.3847 49.8892 73.4371C52.0528 73.5222 54.2583 73.5656 56.5 73.5656C58.8031 73.5656 61.0797 73.5137 63.3205 73.4136C61.1203 76.4144 58.8989 79.1591 56.6876 81.6026ZM79.7262 55.9907C81.2366 59.4459 82.5095 62.7883 83.5202 65.9667C80.2444 66.7171 76.7073 67.3213 72.9803 67.77C74.1746 65.8699 75.331 63.9461 76.449 61.9998C77.5857 60.0214 78.6784 58.0179 79.7262 55.9907ZM72.268 59.5793C70.5564 62.5634 68.7486 65.4908 66.8475 68.357C63.4037 68.6018 59.9524 68.7234 56.5 68.7216C52.9836 68.7216 49.5635 68.6117 46.27 68.3973C44.3192 65.5378 42.4769 62.6052 40.7471 59.6059H40.7475C39.0258 56.6224 37.4177 53.5744 35.9265 50.4685C37.4139 47.3618 39.0172 44.3124 40.733 41.3266L40.7325 41.3271C42.4477 38.3406 44.2752 35.4206 46.2113 32.5733C49.5714 32.3181 53.0172 32.1853 56.4996 32.1853H56.5C59.9983 32.1853 63.4485 32.3195 66.8078 32.5764C68.7242 35.4194 70.5401 38.3294 72.2521 41.3009C73.9736 44.2801 75.5981 47.3146 77.123 50.3998C75.6138 53.5165 73.9944 56.5783 72.268 59.5793ZM82.2253 5.4805C86.0087 7.67061 87.4802 16.5023 85.103 28.0841C84.9511 28.823 84.7808 29.5756 84.5954 30.3389C79.9072 29.2527 74.8169 28.4452 69.4873 27.9433C66.3827 23.5059 63.1656 19.4717 59.9361 15.9792C60.7825 15.1603 61.649 14.3627 62.5349 13.5871C70.8768 6.30135 78.6731 3.42462 82.2253 5.4805ZM56.5 40.2263C62.0723 40.2263 66.5897 44.7602 66.5897 50.3528C66.5897 55.9455 62.0723 60.4794 56.5 60.4794C50.9277 60.4794 46.4103 55.9455 46.4103 50.3528C46.4103 44.7602 50.9277 40.2263 56.5 40.2263Z" fill=" #00D8FF"/>
</g>

<g id='sass'>
 <path d="M100.673 50.0766C96.6033 50.0975 93.0656 51.0694 90.1037 52.5063C89.0165 50.3721 87.9297 48.4708 87.7382 47.076C87.5248 45.4493 87.2693 44.4561 87.5248 42.5122C87.7807 40.5683 88.9315 37.8001 88.91 37.589C88.889 37.3778 88.6541 36.3846 86.3101 36.3637C83.9661 36.3424 81.9415 36.8073 81.7071 37.42C81.4726 38.0326 81.0252 39.4273 80.7268 40.8637C80.3219 42.9771 76.0388 50.5198 73.5883 54.471C72.7995 52.9291 72.1177 51.5765 71.9682 50.499C71.7553 48.8722 71.4993 47.879 71.7553 45.9351C72.0112 43.9912 73.1619 41.2235 73.1405 41.0119C73.119 40.8007 72.8845 39.8075 70.5405 39.7866C68.1961 39.7653 66.1715 40.2302 65.9376 40.8429C65.7031 41.4559 65.4472 42.8923 64.9573 44.2871C64.4669 45.6818 58.7771 58.275 57.2855 61.5285C56.6827 62.8453 56.0503 64.1487 55.3889 65.4376C55.3889 65.4376 55.3674 65.501 55.3034 65.6066C55.0956 66.0107 54.8827 66.4122 54.6645 66.811V66.8318C54.3446 67.4028 54.0037 67.9307 53.8332 67.9307C53.7053 67.9307 53.4708 66.4095 53.8757 64.3387C54.7281 59.9652 56.7526 53.1615 56.7316 52.9291C56.7316 52.8022 57.115 51.6191 55.4104 51.006C53.7478 50.3934 53.1514 51.4075 53.0019 51.4075C52.8529 51.4075 52.746 51.7668 52.746 51.7668C52.746 51.7668 54.6005 44.118 49.2088 44.118C45.842 44.118 41.196 47.7734 38.8945 51.0694C36.2782 52.4811 33.6641 53.8968 31.0523 55.3166C29.7955 56.0139 28.4953 56.7113 27.2806 57.3661C27.1951 57.2818 27.1101 57.1758 27.0247 57.0915C20.5036 50.1822 8.44225 45.3012 8.95364 36.0257C9.14558 32.6449 10.3174 23.7705 32.118 12.9947C50.0611 4.22583 64.3394 6.65549 66.8114 12.0436C70.3486 19.7349 59.161 34.0183 40.6207 36.0887C33.5457 36.8708 29.8375 34.1661 28.9002 33.152C27.9199 32.0953 27.7705 32.0318 27.4081 32.2435C26.8117 32.5606 27.1951 33.5113 27.4081 34.0605C27.9624 35.4969 30.2425 38.0326 34.0996 39.2796C37.5093 40.378 45.799 40.991 55.8363 37.1454C67.0668 32.8348 75.8469 20.8546 73.2684 10.8183C70.6895 0.633908 53.6413 -2.72556 37.5093 2.95799C27.9199 6.33921 17.5203 11.6634 10.0404 18.594C1.15388 26.834 -0.252795 33.997 0.322578 36.9976C2.39008 47.6465 17.2008 54.5771 23.125 59.7114C22.8266 59.8804 22.5492 60.0286 22.3152 60.1555C19.3529 61.6132 8.05836 67.4658 5.24547 73.6568C2.04916 80.6716 5.75732 85.7009 8.2078 86.3765C15.8156 88.4686 23.6364 84.7076 27.8345 78.4953C32.0326 72.2834 31.5212 64.2119 29.5821 60.5144C29.5606 60.4722 29.5396 60.4296 29.4966 60.3875C30.2639 59.9439 31.0523 59.479 31.8196 59.0354C33.2299 58.2088 34.658 57.4126 36.1031 56.6474C35.3783 58.6126 34.8454 60.958 34.59 64.3387C34.2701 68.3113 35.9107 73.4665 38.0632 75.4947C39.0225 76.3828 40.1518 76.4037 40.8766 76.4037C43.391 76.4037 44.5208 74.3329 45.778 71.8819C47.3122 68.8818 48.6974 65.3954 48.6974 65.3954C48.6974 65.3954 46.9712 74.8191 51.6597 74.8191C53.3643 74.8191 55.0905 72.6214 55.8578 71.5017V71.5226C55.8578 71.5226 55.9003 71.4592 55.9857 71.3114C56.1562 71.0368 56.2627 70.8674 56.2627 70.8674V70.8257C56.9445 69.6421 58.4792 66.9587 60.7592 62.5004C63.7 56.7534 66.5344 49.5696 66.5344 49.5696C66.5344 49.5696 66.7903 51.3232 67.6637 54.239C68.1755 55.9505 69.2404 57.831 70.0931 59.648C69.4113 60.5991 68.9849 61.127 68.9849 61.127L69.0064 61.1483C68.452 61.8665 67.8556 62.6481 67.1948 63.4094C64.8718 66.1558 62.1019 69.3045 61.718 70.2126C61.2701 71.2901 61.3771 72.0722 62.2298 72.7062C62.8477 73.1711 63.9555 73.234 65.0852 73.1711C67.1738 73.0229 68.644 72.5158 69.3683 72.1991C70.498 71.7976 71.8193 71.1846 73.055 70.276C75.3355 68.6067 76.7202 66.2192 76.5927 63.0714C76.5287 61.3386 75.9534 59.6059 75.25 57.9787C75.4634 57.6833 75.6549 57.3874 75.8683 57.0915C79.4696 51.8724 82.2614 46.1462 82.2614 46.1462C82.2614 46.1462 82.5174 47.8998 83.3907 50.8161C83.8171 52.2951 84.6909 53.901 85.4578 55.4643C82.0695 58.1903 79.981 61.3594 79.2351 63.4302C77.8929 67.2759 78.9367 69.0082 80.9187 69.4097C81.8136 69.6 83.0923 69.1772 84.0301 68.7757C85.2233 68.3956 86.63 67.7408 87.9727 66.7684C90.2531 65.0995 92.4477 62.775 92.3197 59.6272C92.2558 58.1903 91.8723 56.7743 91.3394 55.4009C94.2163 54.2182 97.9245 53.563 102.655 54.1122C112.799 55.2953 114.802 61.5706 114.418 64.2123C114.035 66.8531 111.904 68.29 111.201 68.7336C110.497 69.1777 110.263 69.3254 110.327 69.6421C110.412 70.107 110.753 70.0862 111.35 70.0014C112.181 69.8537 116.678 67.8672 116.869 63.0075C117.189 56.7956 111.222 50.0132 100.673 50.0766ZM22.4217 76.2346C19.0544 79.8687 14.3664 81.2421 12.3419 80.0803C10.1684 78.8333 11.0207 73.4665 15.1548 69.6213C17.6692 67.2759 20.9085 65.0991 23.061 63.7683C23.5509 63.4724 24.2758 63.0501 25.1496 62.5217C25.2985 62.437 25.384 62.3948 25.384 62.3948L25.8954 62.0776C27.4081 67.5713 25.9594 72.4103 22.4217 76.2346ZM46.9287 59.7114C45.7565 62.543 43.306 69.7903 41.8144 69.3888C40.5357 69.0508 39.7469 63.5571 41.5584 58.1269C42.4747 55.4009 44.4138 52.147 45.5436 50.8796C47.3762 48.8509 49.4007 48.1744 49.8906 48.9991C50.509 50.0766 47.6531 57.9365 46.9287 59.7114ZM67.1523 69.3041C66.6619 69.5578 66.1935 69.7269 65.9801 69.6C65.8311 69.5153 66.1935 69.1772 66.1935 69.1772C66.1935 69.1772 68.7294 66.473 69.7307 65.2473C70.3066 64.5291 70.988 63.684 71.7128 62.7329V63.0075C71.7128 66.2405 68.5585 68.4169 67.1518 69.3041H67.1523ZM82.7514 65.7756C82.3889 65.5219 82.4529 64.6768 83.6677 62.0355C84.1365 61.0001 85.2443 59.2678 87.1414 57.5985C87.3543 58.2746 87.5038 58.9298 87.4823 59.5424C87.4608 63.6205 84.5204 65.1417 82.7514 65.7756Z" fill="#CD6799" />
</g>

<g id='figma'>
<path d="M36.8543 89.0626C44.0418 89.0626 49.875 83.2294 49.875 76.0419V63.0208H36.8543C29.6668 63.0208 23.8332 68.8544 23.8332 76.0419C23.8332 83.2294 29.6668 89.0626 36.8543 89.0626Z" fill="#0ACF83"/>
<path d="M23.8332 50C23.8332 42.8125 29.6668 36.9792 36.8543 36.9792H49.875V63.0207H36.8543C29.6668 63.0207 23.8332 57.1875 23.8332 50Z" fill="#A259FF"/>
<path d="M23.8332 23.9582C23.8332 16.7707 29.6668 10.9375 36.8543 10.9375H49.875V36.9793H36.8543C29.6668 36.9793 23.8332 31.1457 23.8332 23.9582Z" fill="#F24E1E"/>
<path d="M49.875 10.9375H62.8957C70.0832 10.9375 75.9168 16.7707 75.9168 23.9582C75.9168 31.1457 70.0832 36.9793 62.8957 36.9793H49.875V10.9375Z" fill="#FF7262"/>
<path d="M75.9168 50C75.9168 57.1875 70.0832 63.0207 62.8957 63.0207C55.7082 63.0207 49.875 57.1875 49.875 50C49.875 42.8125 55.7082 36.9792 62.8957 36.9792C70.0832 36.9792 75.9168 42.8125 75.9168 50Z" fill="#1ABCFE"/>
</g>

<g id='redux'>
<path d="M72.6971 69.5627C76.5688 69.1619 79.5061 65.8242 79.3725 61.8184C79.2393 57.8131 75.9012 54.6086 71.8959 54.6086H71.6291C67.4897 54.7422 64.2856 58.2135 64.4193 62.3525C64.5529 64.3553 65.3537 66.091 66.5553 67.2926C62.016 76.2385 55.0734 82.7807 44.6594 88.2549C37.5832 91.9934 30.2402 93.3287 22.8971 92.3943C16.8889 91.593 12.216 88.923 9.27827 84.5164C5.00614 77.9742 4.60573 70.8975 8.21065 63.8213C10.7475 58.7475 14.7525 55.009 17.2893 53.1398C16.7553 51.4041 15.9541 48.4668 15.5537 46.3307C-3.80574 60.35 -1.80287 79.3094 4.07172 88.2549C8.47745 94.9311 17.4229 99.0701 27.3029 99.0701C29.9729 99.0701 32.643 98.8029 35.3135 98.1357C52.4033 94.7975 65.3541 84.65 72.6971 69.5627ZM96.1955 53.0066C86.0483 41.1234 71.0951 34.5811 54.0053 34.5811H51.8693C50.6676 32.1779 48.1307 30.5754 45.327 30.5754H45.0598C40.9213 30.709 37.7172 34.1803 37.8504 38.3197C37.984 42.325 41.3217 45.5295 45.327 45.5295H45.5938C48.5311 45.3959 51.068 43.5266 52.1361 40.9898H54.5393C64.6865 40.9898 74.2992 43.927 82.9779 49.6684C89.6533 54.0746 94.4598 59.816 97.1299 66.7586C99.3996 72.3664 99.266 77.8406 96.8627 82.5139C93.1246 89.5902 86.8496 93.4623 78.5717 93.4623C73.2311 93.4623 68.1578 91.8598 65.4873 90.6582C64.0188 91.9934 61.3484 94.1295 59.4791 95.4652C65.2205 98.1352 71.0951 99.6041 76.7025 99.6041C89.5197 99.6041 98.9992 92.5275 102.604 85.4512C106.476 77.707 106.209 64.3553 96.1955 53.0066ZM28.3709 71.832C28.5045 75.8377 31.8422 79.0418 35.8475 79.0418H36.1147C40.2537 78.9086 43.4578 75.4369 43.3242 71.2979C43.191 67.2922 39.8529 64.0881 35.8475 64.0881H35.5807C35.3135 64.0881 34.9127 64.0881 34.6463 64.2213C29.1721 55.1422 26.9025 45.2623 27.7037 34.5807C28.2373 26.5697 30.9078 19.6266 35.5807 13.8852C39.4525 8.94508 46.9291 6.5418 52.0029 6.40861C66.1549 6.14139 72.1627 23.7656 72.5635 30.8422C74.2992 31.2426 77.2365 32.1775 79.2393 32.8451C77.6369 11.2156 64.2856 0 51.4688 0C39.4524 0 28.3709 8.67869 23.9647 21.4963C17.8234 38.5865 21.8287 55.009 29.3053 67.9602C28.6381 68.8947 28.2373 70.3635 28.3709 71.8324V71.832Z" fill="#764ABC"/>
</g>

<g id='css'>
<path d="M22.1325 101.154L13.71 7.4375H106.29L97.8562 101.139L59.9437 111.562L22.1325 101.154Z" fill="#1572B6"/>
<path d="M60 103.597L90.6375 95.1739L97.845 15.1018H60V103.597Z" fill="#33A9DC"/>
<path d="M60 49.054H75.3375L76.395 37.2842H60V25.7896H89.0625L88.785 28.8724L85.9387 60.5487H60V49.054Z" fill="white"/>
<path d="M60.0712 78.9045L60.0187 78.9193L47.1112 75.4609L46.2862 66.2942H34.65L36.2737 84.3413L60.015 90.8788L60.0712 90.864V78.9045Z" fill="#EBEBEB"/>
<path d="M74.3512 60.0615L72.9563 75.4534L60.03 78.9119V90.8714L83.79 84.3412L83.9663 82.4001L85.98 60.0615H74.3512Z" fill="white"/>
<path d="M60.0413 25.7896V37.2842H32.0438L31.8113 34.6997L31.2825 28.8724L31.005 25.7896H60.0413ZM60 49.054V60.5487H47.2538L47.0213 57.9642L46.4963 52.1369L46.2188 49.054H60Z" fill="#EBEBEB"/>
</g>

<g id='html'>
<path d="M22.1325 102.004L13.7063 7.5H106.294L97.8562 101.989L59.9438 112.5L22.1325 102.004Z" fill="#E44F26"/>
<path d="M60 104.468L90.6375 95.9738L97.845 15.2288H60V104.468Z" fill="#F1662A"/>
<path d="M60 50.2762H44.6625L43.605 38.4074H60V26.8162H30.9375L31.215 29.9287L34.0613 61.8674H60V50.2762ZM60 80.3774L59.9475 80.3924L47.04 76.9087L46.215 67.6649H34.5787L36.2025 85.8599L59.9475 92.4524L60 92.4374V80.3774Z" fill="#EBEBEB"/>
<path d="M59.9587 50.2762V61.8674H74.2312L72.8887 76.9012L59.9587 80.3887V92.4487L83.7225 85.8599L83.895 83.9024L86.6175 53.3887L86.9025 50.2762H59.9587ZM59.9587 26.8162V38.4074H87.9562L88.1887 35.8049L88.7175 29.9287L88.995 26.8162H59.9587Z" fill="white"/>
</g>

<g id='javascript'>
<path d="M7.5 7.5H112.5V112.5H7.5V7.5Z" fill="#F5DE19"/>
<path d="M78.0338 89.5312C78.9284 91.3485 80.3183 92.8759 82.0434 93.9375C83.7684 94.9991 85.7584 95.5515 87.7838 95.5313C91.8713 95.5313 94.485 93.4875 94.485 90.6562C94.485 87.2812 91.8 86.0738 87.3 84.105L84.8325 83.0475C77.7075 80.0138 72.9825 76.215 72.9825 68.1825C72.9825 60.7838 78.6075 55.1475 87.4313 55.1475C90.2877 54.9412 93.1416 55.5805 95.637 56.9856C98.1324 58.3907 100.159 60.4994 101.464 63.0488L93.75 67.98C93.2476 66.716 92.3728 65.6345 91.2416 64.879C90.1105 64.1236 88.7764 63.7298 87.4163 63.75C86.8229 63.6906 86.2236 63.7555 85.6567 63.9404C85.0897 64.1254 84.5675 64.4265 84.1234 64.8244C83.6792 65.2224 83.3228 65.7085 83.0769 66.2518C82.831 66.7951 82.7009 67.3837 82.695 67.98C82.695 70.9388 84.5288 72.1388 88.7625 73.98L91.23 75.0375C99.615 78.6338 104.355 82.2975 104.355 90.5363C104.355 99.42 97.3763 104.287 88.005 104.287C84.3537 104.52 80.713 103.691 77.5223 101.901C74.3317 100.11 71.7274 97.4342 70.0238 94.1963L78.0338 89.5312ZM43.1775 90.3863C44.7263 93.135 46.1363 95.46 49.5263 95.46C52.7663 95.46 54.8138 94.1925 54.8138 89.2612V55.71H64.68V89.3925C64.68 99.6075 58.68 104.257 49.9463 104.257C46.8591 104.426 43.7931 103.657 41.1513 102.051C38.5096 100.444 36.4157 98.0761 35.145 95.2575L43.1775 90.3863Z" fill="black"/>
</g>

<g id = 'gsap'>
  <path d="M67.3652 119.745C65.8015 119.471 64.1815 118.729 63.2627 117.908C62.639 117.253 62.2831 116.389 62.2652 115.485C62.2652 114.566 62.734 113.276 63.4765 111.99C63.9265 111.266 64.279 110.486 64.5302 109.665C64.6877 109.099 65.0177 108.18 65.2727 107.595L65.7227 106.523L65.839 99.3563C65.899 95.3925 66.0152 91.7213 66.1127 91.1513C66.3677 89.5088 66.7952 87.9075 67.3615 86.3475L67.7927 85.3125L67.1665 84.9413C66.6002 84.5888 66.1315 84.1013 64.2752 81.8925C61.9915 79.1963 58.984 77.7113 54.724 77.205C53.3365 77.07 51.9302 76.9688 50.524 76.9125C44.2727 76.62 40.699 75.3113 37.4777 72.1463C35.074 69.7838 33.8252 67.0275 33.319 62.9663C32.6365 57.4763 31.8752 54.6638 30.469 52.38C30.1224 51.816 29.7231 51.2861 29.2765 50.7975L28.7102 50.2313L27.4615 51.0338C26.779 51.4838 25.819 52.05 25.3502 52.305C23.7865 53.1638 22.3015 54.12 20.8765 55.155C17.3815 57.6938 13.5715 60.8775 11.4827 62.9663C10.5452 63.9038 10.0577 64.3125 9.84022 64.275C8.41522 64.0613 9.50647 57.8888 11.8315 53.2388C14.8015 47.2425 19.8002 41.715 25.5827 37.9838C30.3302 34.9163 38.0065 30.6975 41.5577 29.2125C47.8652 26.5763 56.029 23.7225 61.6165 22.2C62.7902 21.8663 63.5102 21.5738 63.9977 21.2438C65.0927 20.4825 66.1652 20.1113 67.3952 20.0925C68.4302 20.0738 68.5277 20.055 69.5252 19.3875C70.699 18.6263 71.0477 18.585 72.2215 18.9975L72.9827 19.2713L73.9202 18.6263L74.8577 18L76.204 18.0188C77.239 18.0375 77.7077 18 78.1577 17.805C78.724 17.55 78.7427 17.5125 78.9002 16.575C79.2527 14.5425 79.2902 13.5263 79.0765 12.2963C78.8027 10.6763 78.7652 4.3875 79.039 3.15375C79.3315 1.82625 79.5265 1.5525 80.524 1.065C82.009 0.341252 83.1227 0.127502 85.6802 0.127502C88.804 0.127502 90.3865 0.558753 91.5602 1.69125C92.614 2.7075 92.7902 5.08875 92.2427 10.6763C91.909 13.8975 91.8715 14.7975 91.969 16.905C92.0065 18.2513 92.104 19.5225 92.1452 19.6988C92.224 20.0325 92.3027 20.0513 93.4352 20.07C94.549 20.0888 94.744 20.1488 95.7977 20.6963C96.814 21.225 97.5752 21.87 97.7327 22.3388C97.7515 22.4363 97.9277 22.4363 98.239 22.3388C98.8427 22.1625 99.3715 22.3575 99.8027 22.8863C100.058 23.22 100.211 23.2763 100.8 23.2763C101.603 23.2763 101.895 23.4713 102.559 24.45C102.869 24.8893 103.295 25.2344 103.789 25.4475C104.884 25.995 106.369 27.5175 106.935 28.7288C107.813 30.525 107.989 32.6138 107.441 34.4888C107.246 35.1938 107.246 35.2125 107.655 35.895C108.514 37.3613 108.829 39.1575 108.476 40.68L108.281 41.58L108.866 42.165C111.776 45.075 111.345 49.8225 107.794 54.06C107.397 54.544 107.062 55.0756 106.796 55.6425C106.114 57.4575 105.33 58.7288 104.318 59.7825L103.283 60.8363H102.229C101.175 60.8363 99.6902 60.4838 98.7902 60.015C98.419 59.82 98.4002 59.82 98.479 60.0525C98.7152 60.9113 99.3002 64.4063 99.4952 66.3413C99.8065 69.3113 99.709 73.6275 99.3002 75.4838C99.0015 76.8586 98.5011 78.1816 97.8152 79.41C97.4252 80.0363 97.4065 80.1713 97.4815 80.9325C97.5977 82.005 97.3465 83.805 96.9152 84.9938C96.3865 86.3813 96.1915 87.0263 96.0752 87.7275C95.9777 88.3313 95.9777 88.3313 96.409 88.3313C96.9752 88.3313 97.2865 88.665 97.2865 89.3288C97.2865 89.6213 97.0315 91.2038 96.7202 92.8238C95.8615 97.3763 95.8015 97.8825 95.8015 102.296C95.7827 106.849 95.7827 106.808 96.8177 107.49L99.1427 108.994C101.143 110.321 103.285 111.422 105.529 112.275C108.791 113.565 109.241 113.895 109.241 114.99C109.241 115.478 109.144 115.654 108.735 116.044C107.486 117.255 105.023 117.529 100.061 117C97.4835 116.758 94.8958 116.635 92.3065 116.629C85.4702 116.531 84.4727 116.295 83.5765 114.596C83.0702 113.621 83.1677 112.35 83.869 110.261C84.1802 109.343 84.454 108.405 84.6902 107.449C85.159 105.184 84.8477 102.488 83.7527 99.4425L82.8152 96.8438C81.8965 94.2075 81.3902 89.3813 81.9377 88.29C82.0352 88.0763 82.2115 88.035 82.6802 88.0538L83.2652 88.1138L83.7527 87.0975C84.124 86.295 84.5327 85.77 85.6465 84.6563L87.0715 83.2313L86.9927 82.3125C86.9327 81.435 85.7815 77.175 85.624 77.1938C85.564 77.1938 85.2527 77.625 84.9002 78.1688C84.0415 79.4588 82.1477 81.45 81.0715 82.1738C80.6027 82.485 80.2127 82.8563 80.2127 82.9763C80.194 83.505 79.744 84.54 79.1965 85.26C78.6677 85.965 78.6302 86.0813 78.709 86.7038C78.844 87.6225 78.5515 90.57 78.2027 92.115C77.8866 93.2622 77.4544 94.3742 76.9127 95.4338C75.5665 98.2275 74.5502 100.725 74.2952 101.88C74.1111 102.992 73.9934 104.114 73.9427 105.24C73.8827 106.568 73.7477 107.858 73.6502 108.131C73.5152 108.503 73.5152 108.795 73.6315 109.361C73.729 109.77 73.789 110.689 73.7665 111.413C73.7477 112.41 73.8265 113.055 74.119 114.225C74.6252 116.216 74.7227 117.469 74.4902 118.211C74.3327 118.68 74.179 118.856 73.6502 119.111C72.4765 119.715 69.1577 120.049 67.3615 119.738L67.3652 119.745ZM72.109 118.144C72.7915 117.949 73.3802 117.364 73.3802 116.835C73.3802 116.599 73.1852 115.916 72.949 115.313C72.4802 114.161 71.6777 111.113 71.6777 110.606C71.6777 110.351 71.6965 110.333 72.0865 110.546L72.5177 110.783V110.235C72.4551 109.73 72.3434 109.233 72.184 108.75C71.8127 107.636 71.7752 107.618 69.409 107.479L67.8077 107.4L67.2227 107.966C66.9011 108.297 66.6191 108.665 66.3827 109.061C66.1277 109.568 66.0302 110.333 66.1877 110.505C66.2252 110.565 66.619 110.505 67.0465 110.408C67.3003 110.332 67.5621 110.287 67.8265 110.273C67.8265 110.291 67.3952 110.644 66.8515 111.015C64.5077 112.774 63.6865 113.846 63.6865 115.215C63.6865 116.64 65.0327 117.754 67.144 118.088C68.5877 118.301 71.4002 118.361 72.1052 118.148L72.109 118.144ZM103.886 115.819C104.471 115.114 104.393 114.394 103.65 113.573C103.219 113.141 102.731 112.77 102.184 112.478C101.636 112.185 101.089 111.851 100.541 111.503C99.5512 110.861 98.5341 110.261 97.4927 109.706C96.5927 109.219 95.7152 108.709 94.8565 108.165L94.504 107.891V102.521C94.504 97.23 94.4852 97.1513 94.2115 97.23C92.8427 97.6013 90.5777 97.7775 87.709 97.7175L84.604 97.68L85.054 98.775C85.894 100.845 86.3252 103.62 86.3252 106.804C86.3252 107.996 86.2465 108.424 85.954 109.264C85.7965 109.673 85.6615 110.085 85.5227 110.494C85.4627 110.67 85.6802 110.805 86.479 111.041C87.064 111.218 87.9227 111.394 88.414 111.45L89.314 111.548L89.2165 112.448C89.119 113.464 89.2352 114.536 89.4902 114.87C89.6477 115.065 90.2327 115.144 92.9477 115.26C94.999 115.358 97.2265 115.571 98.9815 115.826C100.504 116.063 102.146 116.258 102.634 116.258C103.455 116.276 103.534 116.239 103.883 115.826L103.886 115.819ZM72.619 106.68C72.6977 106.62 72.814 105.566 72.8552 104.318C73.0127 100.823 73.1477 100.313 74.9065 96.3675C76.3502 93.1463 77.1152 90.1388 77.0552 88.0088L77.0177 86.7375L76.4702 87.2663C75.3377 88.3988 76.1177 86.6213 77.4677 85.0388C78.484 83.8275 78.8365 83.1638 78.9902 82.0913C79.069 81.66 79.2265 81.4463 79.8902 80.94C82.3737 79.0639 84.2873 76.5349 85.4177 73.635C85.6915 72.93 86.3927 70.53 86.9815 68.3025C88.0765 64.1813 88.6615 62.4038 89.1902 61.6425C89.3852 61.35 89.464 61.29 89.4265 61.485C89.1433 62.5324 88.9216 63.5955 88.7627 64.6688C88.6052 65.625 88.3127 67.5 88.1177 68.8088C87.7465 71.4863 87.3565 73.2038 86.8277 74.5313L86.4752 75.4313L87.4127 77.8538C88.3877 80.3325 88.8377 82.1325 88.9165 83.8688L88.9765 84.8438L88.2152 85.0013C87.2105 85.1791 86.3139 85.7396 85.714 86.565C85.0502 87.5213 84.679 88.305 84.8552 88.4775C84.934 88.5563 85.8902 88.7325 86.9852 88.8675C88.684 89.0625 89.329 89.0625 91.5752 88.9275C92.5502 88.89 93.5102 88.7925 94.4665 88.6538C94.6802 88.575 94.8977 88.1475 95.2465 87.0338C96.049 84.4763 96.2027 83.5763 96.1052 81.78L96.0265 80.1975L96.4352 79.6688C97.3915 78.4575 98.134 76.2713 98.4452 73.71C98.8165 70.5863 98.134 64.0425 96.8627 58.4175C96.259 55.74 96.004 54.1388 96.004 52.9688V51.9338L95.0477 52.0313C91.609 52.4025 87.4502 52.305 84.9115 51.7763C83.524 51.5025 80.029 50.4675 79.2677 50.1338L78.664 49.86L78.5852 50.5425C78.5252 50.9138 78.469 51.285 78.3902 51.675C78.274 52.0838 78.3115 52.1813 79.0352 52.8863C79.9352 53.805 80.209 54.2738 80.209 54.8963C80.209 55.2863 79.9952 55.6013 78.9002 56.7338C78.1151 57.5715 77.2441 58.3244 76.3015 58.98L75.0302 59.8388L74.4827 61.7325C72.529 68.6663 72.1577 74.9738 73.4477 79.485L73.759 80.6175L73.1327 81.3975C70.789 84.345 69.4015 86.5913 69.1877 87.8438C69.0628 88.4605 68.9189 89.0733 68.7565 89.6813C68.2502 91.6163 67.8565 94.4475 67.684 97.515C67.5638 100.083 67.395 102.648 67.1777 105.21L67.0802 105.971L68.0552 106.264C68.6027 106.44 69.424 106.635 69.8927 106.714C70.7702 106.849 72.394 106.811 72.6452 106.676L72.619 106.68ZM91.5827 95.9363C93.1052 95.8388 94.4927 95.6025 94.7665 95.37C94.8827 95.2913 95.0215 94.8825 95.059 94.47L95.1565 93.7275L93.9452 94.0013C92.989 94.1963 92.0327 94.3125 91.0727 94.3913C88.7665 94.4888 86.4452 94.4288 84.1577 94.1963C83.3965 94.08 83.3965 94.08 83.629 95.0738C83.824 95.8163 83.8652 95.8538 85.8565 95.9925C87.184 96.1088 89.0402 96.09 91.579 95.9325L91.5827 95.9363ZM90.3115 92.5388C92.3027 92.3625 94.7852 91.935 95.2727 91.68C95.4302 91.6013 95.5652 91.3088 95.6252 90.975L95.8015 89.94L95.899 89.4525L95.4115 89.55C93.244 90 91.6015 90.135 88.3202 90.135C85.1177 90.135 84.7465 90.1163 83.9065 89.8238C83.5837 89.6877 83.24 89.6078 82.8902 89.5875C82.7552 89.6663 82.7327 90.78 82.8527 91.56C82.9315 92.0288 83.0102 92.1075 83.479 92.2425C84.964 92.6513 87.4652 92.7488 90.3152 92.5163L90.3115 92.5388ZM54.064 74.9213C59.0627 73.4775 65.6065 69.2363 70.9577 63.9263C72.6977 62.1863 72.9115 61.9538 73.144 61.1738L73.4552 60.1763C73.4927 60.0975 73.1815 59.9625 72.7727 59.865C71.7002 59.61 70.879 58.9875 70.879 58.4213C70.879 58.0875 70.684 57.7575 70.1177 57.15C69.199 56.115 68.9665 55.665 68.869 54.6713L68.7902 53.8688L67.6952 53.0888C67.069 52.6388 64.8827 51.4275 62.5577 50.2575C60.7875 49.3939 59.0547 48.4555 57.364 47.445C55.4102 46.1363 54.1015 44.5725 53.359 42.72C53.224 42.3488 53.0477 42.0375 52.9877 42.0375C52.8302 42.0375 48.4352 46.275 46.5602 48.2663C41.9327 53.1488 38.749 57.3863 36.7352 61.3125C36.229 62.2875 35.6815 63.4425 35.524 63.87L35.2315 64.65L35.584 65.9588C35.7977 66.6638 36.2477 67.815 36.6002 68.4975C37.8302 70.92 39.2965 72.3825 41.719 73.575C44.3177 74.865 46.6202 75.315 50.4677 75.255C52.5377 75.2363 53.1452 75.1763 54.0602 74.9025L54.064 74.9213ZM14.6102 57.7913C17.8915 54.8813 22.4215 51.6975 27.9715 48.3975C31.6052 46.23 45.649 39.1988 52.114 36.3263C53.2877 35.7975 54.3415 35.31 54.4577 35.2538C54.574 35.175 54.9077 34.335 55.219 33.3975C56.5877 29.0625 57.2702 28.2038 59.749 27.6375C60.0602 27.5588 60.139 27.4613 60.139 27.15C60.139 26.5838 60.529 25.275 60.8627 24.69C61.1177 24.24 61.1177 24.2213 60.9002 24.2813C60.7652 24.3188 59.944 24.555 59.0852 24.81C47.1715 28.2488 36.7615 32.8163 27.7765 38.52C18.1877 44.6138 12.6602 51.9188 11.059 60.6675L10.9427 61.3125L12.1165 60.1613C12.7427 59.5163 13.8752 58.4625 14.6177 57.8175L14.6102 57.7913ZM102.99 59.4525C103.946 58.965 105.431 56.7188 105.979 54.9413C106.136 54.315 106.448 53.73 106.898 53.2425C108.341 51.6413 109.534 48.7313 109.553 46.74C109.553 43.635 107.794 42.4425 105.236 43.77C104.903 43.9275 104.633 44.0438 104.591 44.0063C104.456 43.8713 105.176 43.1663 106.058 42.6188C107.209 41.8575 107.426 41.4075 107.426 39.7875C107.443 38.4781 107.054 37.1955 106.313 36.1163C105.96 35.5875 105.825 35.2388 105.881 35.0213L106.234 33.7125C106.721 31.9725 106.545 29.9813 105.784 28.7138C104.651 26.8013 103.264 25.8638 101.329 25.7063L100.196 25.6275L100.86 26.37C102.833 28.5 103.789 31.1738 103.399 33.4613C103.204 34.635 103.028 34.8675 101.895 35.3175L101.231 35.5913L101.31 36.4913C101.445 37.9575 101.194 39.03 100.256 41.0025C99.7877 42 99.4352 42.8963 99.4765 42.9938C99.5927 43.3275 100.883 43.95 101.899 44.205L102.896 44.4413L102.27 44.655C101.449 44.91 101.273 45.2813 101.273 46.6275C101.273 47.8575 101.449 48.3675 102.345 49.7138C102.754 50.2988 103.028 50.9063 103.069 51.255C103.148 51.8025 103.129 51.84 102.679 51.9975C102.169 52.1407 101.644 52.2262 101.115 52.2525C99.2777 52.3688 99.1427 52.4288 98.3215 53.2088C97.579 53.9138 97.5602 53.9513 97.5602 54.7313C97.5602 55.8038 97.969 57.975 98.224 58.2675C98.5577 58.62 100.41 59.5388 101.134 59.6738C101.758 59.8305 102.418 59.7545 102.99 59.46V59.4525ZM75.9377 57.99C77.1302 57.0525 78.0677 56.115 78.5927 55.3125C78.9265 54.825 78.9452 54.7275 78.7877 54.315C78.514 53.6888 76.7177 52.0688 75.7202 51.5813C75.0556 51.2835 74.3525 51.0803 73.6315 50.9775L72.4015 50.82L71.6402 49.8638C70.0577 47.91 69.1802 46.3875 67.9277 43.4363C66.8327 40.935 65.8765 39.4725 64.354 38.025C63.7277 37.44 63.2815 36.9525 63.319 36.9525C63.3977 36.9525 64.1402 37.3238 64.999 37.7738C66.424 38.535 66.6002 38.595 67.2452 38.4975C69.5702 38.2238 71.6215 35.55 72.364 31.8C72.5777 30.7463 73.009 29.67 73.459 29.025C73.4777 29.0063 74.3777 29.5913 75.4315 30.3525C78.109 32.2463 78.694 32.5388 80.2165 32.5988C81.214 32.6363 81.7802 32.5613 83.5765 32.13C87.4052 31.1925 91.5452 30.8213 94.0652 31.155C95.4902 31.35 97.5415 31.9763 99.064 32.6963C100.568 33.4013 100.86 33.4388 101.348 33.0075C101.756 32.655 101.756 32.5988 101.756 31.29C101.738 29.355 101.033 27.2663 99.9602 26.0175C99.4127 25.3725 97.8715 24.3188 96.3452 23.5163C95.8027 23.2285 95.2627 22.936 94.7252 22.6388C94.0015 22.2075 93.184 22.2675 90.9565 22.8525C88.3765 23.5163 87.694 23.5163 84.7465 22.755C82.2452 22.1288 82.0915 22.11 79.6277 22.5C78.319 22.695 75.0377 22.5788 73.9427 22.2863C73.3952 22.1288 72.8477 21.975 72.3227 21.78C71.3665 21.4088 69.7052 21.3488 68.2015 21.6225C65.2127 22.1513 62.9477 23.7713 62.1265 25.9763C61.6952 27.09 61.7552 27.6188 62.3215 27.9675C63.2215 28.5338 64.4102 30.0788 64.4102 30.6825C64.4102 30.72 64.1177 30.4688 63.784 30.1163C62.944 29.2388 62.1827 28.845 61.2827 28.845C60.7004 28.8612 60.1342 29.0397 59.6479 29.3603C59.1616 29.681 58.7745 30.1311 58.5302 30.66C58.2674 31.35 58.0458 32.055 57.8665 32.7713C57.319 34.7625 56.8315 35.82 55.7965 37.2263C54.8777 38.4975 54.7427 39.0638 55.0727 40.4888C55.894 44.0813 57.319 45.5288 63.274 48.9075C66.3977 50.685 67.999 51.6825 69.1727 52.56C70.0727 53.2238 70.0915 53.265 70.0127 53.7713C69.8365 54.945 70.579 56.2125 72.0452 57.2475C72.4165 57.5025 72.649 57.7763 72.649 57.9713C72.649 58.3238 73.6465 58.8113 74.3665 58.8113C74.7752 58.8113 75.0902 58.635 75.9302 57.99H75.9377ZM100.02 51.405C102.285 51.4838 102.401 51.3075 101.194 49.9013C99.9227 48.435 99.574 47.2463 100.043 45.9375L100.238 45.4313L99.4352 45.0413C99.1615 44.9063 98.8877 44.7675 98.614 44.67C98.479 45.1988 98.3402 45.705 98.224 46.2338C97.9315 47.4263 97.579 50.5125 97.5602 51.8213C97.5602 51.9375 97.7552 51.9 98.089 51.6863C98.5577 51.4125 98.794 51.375 100.024 51.4125L100.02 51.405ZM92.4227 51.2888C93.7915 51.21 95.1977 51.1125 95.569 51.0525L96.2515 50.955L96.3302 48.7088C96.4465 45.5063 96.9152 43.6125 98.3027 40.5825C99.2777 38.4338 99.709 36.5588 99.4952 35.1525C99.4165 34.5488 99.379 34.5075 98.5577 34.155C97.0539 33.5579 95.4879 33.1315 93.889 32.8838C92.3477 32.67 87.814 32.7863 86.1152 33.12C85.4102 33.2363 84.124 33.51 83.2652 33.7238C81.1352 34.2113 80.0027 34.155 78.3827 33.45C76.7815 32.745 75.7652 32.1038 74.809 31.2038C74.0477 30.4988 73.969 30.4613 73.774 30.6975C73.6165 30.8738 73.5377 31.4025 73.4815 32.535C73.4215 34.275 73.1477 35.19 72.3865 36.42C72.2173 36.6731 72.0729 36.9418 71.9552 37.2225C71.9552 37.2825 72.5402 37.965 73.264 38.7075C75.7652 41.3063 76.9952 41.97 78.9677 41.8313C79.6127 41.7713 80.0627 41.7938 80.0627 41.8688C80.0627 42.0263 78.7915 43.02 78.2665 43.2938C78.0115 43.4288 77.9552 43.5675 77.9927 43.86L78.304 45.9113C78.4802 47.085 78.6152 47.6288 78.7915 47.7863C79.2602 48.1763 81.6827 49.4288 83.2052 50.0513C85.1965 50.8538 86.2915 51.1463 87.814 51.2813C89.689 51.4388 89.7265 51.4388 92.4227 51.2813V51.2888ZM76.2715 49.14C76.309 49.08 76.174 47.9475 75.919 46.6388C75.6077 44.8613 75.4315 44.2163 75.2365 44.04C75.1015 43.9238 74.3777 43.4138 73.654 42.8888C72.703 42.205 71.802 41.4543 70.9577 40.6425L69.6115 39.315L68.8877 39.6863L68.1265 40.095C68.1905 40.4001 68.2952 40.6952 68.4377 40.9725C68.6515 41.4413 69.0827 42.5925 69.394 43.53C70.2152 45.9713 70.8602 47.145 72.4802 49.2713L73.084 50.0738L74.2352 50.25C74.8802 50.3475 75.5252 50.4863 75.7015 50.5425C75.9752 50.6588 76.0127 50.6025 76.0915 49.9763C76.129 49.7025 76.189 49.41 76.2677 49.1363L76.2715 49.14ZM101.018 24.8438C102.015 24.7463 102.191 24.6075 101.76 24.1613C101.486 23.8875 100.86 23.8688 100.354 24.1013C100.02 24.2588 99.9452 24.2175 99.4165 23.6513C98.869 23.0475 98.8315 23.025 98.1452 23.1038C97.519 23.1825 97.4215 23.1638 97.3427 22.9088C97.0988 22.4899 96.7957 22.1084 96.4427 21.7763C95.9992 21.2722 95.4446 20.8781 94.8227 20.625C93.6115 20.1563 92.929 20.2163 91.774 20.8613C88.4327 22.6763 88.5715 22.6575 85.3465 21.8363C82.339 21.075 80.0927 20.295 79.369 19.8038C78.7652 19.395 77.4752 18.945 76.399 18.8063C75.5965 18.69 75.0902 18.8663 74.329 19.4888L73.9202 19.8225L74.2915 20.4675C74.7977 21.3675 74.7415 21.4238 73.9802 20.76C73.159 20.0775 72.184 19.6088 71.5577 19.5863C71.1077 19.5863 69.7802 20.1713 69.6227 20.4263C69.5627 20.505 69.9752 20.6025 70.5227 20.64C71.089 20.7 71.869 20.895 72.3977 21.1088C73.7665 21.6938 74.4677 21.8888 75.7165 22.0088C77.0852 22.1438 79.564 21.99 79.8565 21.7538C80.014 21.6188 80.4415 21.5963 81.3415 21.675C82.534 21.7538 83.0215 21.87 85.8527 22.6313C87.4952 23.0813 88.6465 23.04 90.6002 22.515C91.5002 22.26 92.6327 22.0088 93.1015 21.9488C93.904 21.87 94.0577 21.9113 95.3102 22.4775C97.3015 23.3775 98.359 23.9438 98.944 24.4688C99.529 24.975 99.6077 24.975 101.014 24.8588L101.018 24.8438ZM89.884 21.4275L91.0765 20.8013L91.039 19.59C91.0202 18.75 90.979 17.9288 90.9415 17.1113L90.844 15.8625L89.6515 16.7813C88.9465 17.3288 88.264 17.7375 87.9715 17.7975C87.1127 17.955 82.8752 17.7975 82.4815 17.5838C81.9569 17.1963 81.4664 16.7647 81.0152 16.2938L79.9202 15.18L79.9015 15.8438C79.9015 16.1963 79.864 16.8 79.7852 17.1713C79.6877 17.8763 79.6877 17.895 80.449 18.8513C80.8577 19.38 81.1915 19.8488 81.1915 19.905C81.1915 20.2763 86.8352 22.035 88.1065 22.0538C88.5152 22.0538 89.0252 21.8775 89.884 21.4275V21.4275ZM87.619 16.9913C89.0252 16.7175 89.7077 15.7013 90.2365 13.125C90.784 10.35 91.0577 5.99625 90.8027 4.14C90.5665 2.46 88.6915 1.7175 85.1177 1.83375C82.8902 1.9125 81.9715 2.12625 81.2102 2.77125C80.7415 3.16125 80.7415 3.2025 80.5277 5.055C80.1377 8.61 80.7227 13.6688 81.739 15.5625C82.2265 16.4813 82.6577 16.8113 83.554 16.9688C84.5702 17.145 86.7377 17.145 87.6152 16.9875L87.619 16.9913Z" fill="white" />
</g>

<g id='tailwind'>
<path d="M36.8438 56.0844C40.6646 40.8011 50.2167 33.1594 65.5 33.1594C88.425 33.1594 91.2906 50.3532 102.753 53.2188C110.395 55.1292 117.081 52.2636 122.812 44.6219C118.992 59.9053 109.44 67.5469 94.1562 67.5469C71.2313 67.5469 68.3656 50.3532 56.9031 47.4875C49.2615 45.5771 42.575 48.4428 36.8438 56.0844ZM8.1875 90.4719C12.0083 75.1886 21.5604 67.5469 36.8438 67.5469C59.7687 67.5469 62.6344 84.7407 74.0969 87.6063C81.7385 89.5167 88.425 86.6511 94.1562 79.0094C90.3354 94.2928 80.7833 101.934 65.5 101.934C42.575 101.934 39.7094 84.7407 28.2469 81.875C20.6052 79.9646 13.9187 82.8303 8.1875 90.4719Z" fill="#44A8B3"/>
</g>

<g id='vscode'>
<path d="M101.535 17.605L81.354 7.88899C80.2143 7.33948 78.9319 7.15814 77.6845 7.37011C76.4372 7.58208 75.2867 8.17686 74.3925 9.07199L8.32998 69.3C7.52845 70.0273 7.04865 71.0432 6.99614 72.1243C6.94363 73.2053 7.32271 74.2629 8.04998 75.0645C8.13748 75.159 8.22498 75.25 8.31948 75.334L13.713 80.234C14.4178 80.8754 15.3249 81.2497 16.277 81.2919C17.229 81.3341 18.1657 81.0416 18.9245 80.465L98.497 20.125C99.098 19.6689 99.8144 19.3897 100.566 19.3186C101.317 19.2476 102.073 19.3877 102.749 19.7231C103.424 20.0585 103.993 20.5758 104.391 21.217C104.789 21.8581 105 22.5975 105 23.352V23.1175C105 21.9656 104.675 20.8372 104.062 19.862C103.449 18.8868 102.573 18.1045 101.535 17.605Z" fill="#0065A9"/>
<path d="M101.535 94.395L81.354 104.115C80.214 104.662 78.9319 104.843 77.6849 104.631C76.4379 104.419 75.2875 103.825 74.3925 102.932L8.32998 42.7C7.52845 41.9727 7.04865 40.9568 6.99614 39.8758C6.94363 38.7947 7.32271 37.7371 8.04998 36.9355C8.13748 36.841 8.22498 36.75 8.31948 36.666L13.713 31.766C14.4185 31.1219 15.3277 30.7459 16.2821 30.7037C17.2365 30.6615 18.1754 30.9557 18.935 31.535L98.497 91.875C99.098 92.3311 99.8144 92.6104 100.566 92.6814C101.317 92.7524 102.073 92.6123 102.749 92.2769C103.424 91.9415 103.993 91.4242 104.391 90.783C104.789 90.1419 105 89.4025 105 88.648V88.9C104.996 90.0488 104.669 91.1733 104.057 92.1451C103.444 93.1168 102.57 93.8965 101.535 94.395Z" fill="#007ACC"/>
<path d="M81.354 104.114C80.214 104.662 78.932 104.843 77.685 104.631C76.438 104.419 75.2876 103.825 74.3925 102.931C74.8952 103.427 75.533 103.764 76.2261 103.899C76.9193 104.034 77.6369 103.962 78.289 103.691C78.9412 103.42 79.4988 102.963 79.8921 102.376C80.2855 101.79 80.4969 101.1 80.5 100.394V11.6059C80.5006 10.8964 80.2906 10.2027 79.8966 9.61268C79.5026 9.02264 78.9424 8.56282 78.2868 8.29146C77.6313 8.02009 76.91 7.9494 76.2142 8.08834C75.5184 8.22728 74.8796 8.56959 74.3785 9.07191C75.2729 8.17711 76.4232 7.58229 77.6703 7.36974C78.9174 7.15718 80.1998 7.33738 81.34 7.88541L101.518 17.5874C102.559 18.0844 103.438 18.8657 104.054 19.8411C104.671 20.8165 104.998 21.9462 105 23.0999V88.8999C105 90.0527 104.675 91.1822 104.061 92.1581C103.448 93.134 102.571 93.9167 101.532 94.4159L81.354 104.114Z" fill="#1F9CF0"/>
</svg>
</g>

<g id='github'>
  <path fill-rule="evenodd" clip-rule="evenodd" d="M44 0C19.69 0 0 19.69 0 44C0 63.47 12.595 79.915 30.085 85.745C32.285 86.13 33.11 84.81 33.11 83.655C33.11 82.61 33.055 79.145 33.055 75.46C22 77.495 19.14 72.765 18.26 70.29C17.765 69.025 15.62 65.12 13.75 64.075C12.21 63.25 10.01 61.215 13.695 61.16C17.16 61.105 19.635 64.35 20.46 65.67C24.42 72.325 30.745 70.455 33.275 69.3C33.66 66.44 34.815 64.515 36.08 63.415C26.29 62.315 16.06 58.52 16.06 41.69C16.06 36.905 17.765 32.945 20.57 29.865C20.13 28.765 18.59 24.255 21.01 18.205C21.01 18.205 24.695 17.05 33.11 22.715C36.63 21.725 40.37 21.23 44.11 21.23C47.85 21.23 51.59 21.725 55.11 22.715C63.525 16.995 67.21 18.205 67.21 18.205C69.63 24.255 68.09 28.765 67.65 29.865C70.455 32.945 72.16 36.85 72.16 41.69C72.16 58.575 61.875 62.315 52.085 63.415C53.68 64.79 55.055 67.43 55.055 71.555C55.055 77.44 55 82.17 55 83.655C55 84.81 55.825 86.185 58.025 85.745C66.7597 82.796 74.3497 77.1822 79.7268 69.6937C85.1039 62.2052 87.9974 53.219 88 44C88 19.69 68.31 0 44 0Z" fill="#FFFEFE" />
</g>

<g id='linkedin'>

  <path d="M6.33333 2.5C4.76853 2.5 3.5 3.76853 3.5 5.33333C3.5 6.89814 4.76853 8.16667 6.33333 8.16667C7.89814 8.16667 9.16667 6.89814 9.16667 5.33333C9.16667 3.76853 7.89814 2.5 6.33333 2.5Z" fill="black" />
  <path d="M3.66667 10.5C3.57462 10.5 3.5 10.5746 3.5 10.6667V28C3.5 28.092 3.57462 28.1667 3.66667 28.1667H9C9.09205 28.1667 9.16667 28.092 9.16667 28V10.6667C9.16667 10.5746 9.09205 10.5 9 10.5H3.66667Z" fill="black" />
  <path d="M12.3333 10.5C12.2413 10.5 12.1667 10.5746 12.1667 10.6667V28C12.1667 28.092 12.2413 28.1667 12.3333 28.1667H17.6667C17.7587 28.1667 17.8333 28.092 17.8333 28V18.6667C17.8333 18.0036 18.0967 17.3677 18.5656 16.8989C19.0344 16.4301 19.6703 16.1667 20.3333 16.1667C20.9964 16.1667 21.6323 16.4301 22.1011 16.8989C22.5699 17.3677 22.8333 18.0036 22.8333 18.6667V28C22.8333 28.092 22.908 28.1667 23 28.1667H28.3333C28.4254 28.1667 28.5 28.092 28.5 28V16.507C28.5 13.2713 25.6859 10.74 22.4665 11.0327C21.4736 11.1229 20.4919 11.3697 19.5753 11.7626L17.8333 12.5091V10.6667C17.8333 10.5746 17.7587 10.5 17.6667 10.5H12.3333Z" fill="black" />

</g>

<g id='telegram'>

  <path fill-rule="evenodd" clip-rule="evenodd" d="M16 1C7.52829 1 0.666626 7.86167 0.666626 16.3333C0.666626 23.1183 5.05579 28.8492 11.1508 30.8808C11.9175 31.015 12.205 30.555 12.205 30.1525C12.205 29.7883 12.1858 28.5808 12.1858 27.2967C8.33329 28.0058 7.33663 26.3575 7.02996 25.495C6.85746 25.0542 6.10996 23.6933 5.45829 23.3292C4.92163 23.0417 4.15496 22.3325 5.43913 22.3133C6.64663 22.2942 7.50913 23.425 7.79663 23.885C9.17663 26.2042 11.3808 25.5525 12.2625 25.15C12.3966 24.1533 12.7991 23.4825 13.24 23.0992C9.82829 22.7158 6.26329 21.3933 6.26329 15.5283C6.26329 13.8608 6.85746 12.4808 7.83496 11.4075C7.68163 11.0242 7.14496 9.4525 7.98829 7.34417C7.98829 7.34417 9.27246 6.94167 12.205 8.91583C13.4316 8.57083 14.735 8.39833 16.0383 8.39833C17.3416 8.39833 18.645 8.57083 19.8716 8.91583C22.8041 6.9225 24.0883 7.34417 24.0883 7.34417C24.9316 9.4525 24.395 11.0242 24.2416 11.4075C25.2191 12.4808 25.8133 13.8417 25.8133 15.5283C25.8133 21.4125 22.2291 22.7158 18.8175 23.0992C19.3733 23.5783 19.8525 24.4983 19.8525 25.9358C19.8525 27.9867 19.8333 29.635 19.8333 30.1525C19.8333 30.555 20.1208 31.0342 20.8875 30.8808C26.9441 28.8492 31.3333 23.0992 31.3333 16.3333C31.3333 7.86167 24.4716 1 16 1V1Z" fill="white" />

</g>


<g id = 'footer007'>
    <path d="M12.5581 0V3.83066C11.5028 3.83066 10.6796 3.98157 10.0882 4.28338C9.49679 4.57357 9.24169 5.15977 9.32287 6.04199L9.86206 11.1785C10.0012 12.4786 9.85626 13.5292 9.42722 14.3301C9.00978 15.131 8.36623 15.7464 7.49655 16.1758C6.63848 16.5938 5.62386 16.8897 4.45271 17.0638C5.69343 17.2495 6.74284 17.5514 7.60092 17.9693C8.45899 18.3871 9.08516 18.9907 9.47941 19.7801C9.87366 20.5695 10.0012 21.6258 9.86206 22.9492L9.32287 28.0857C9.24169 28.9679 9.49679 29.5541 10.0882 29.8443C10.6796 30.146 11.5028 30.297 12.5581 30.297V34.1277C9.35765 34.1277 7.1081 33.6401 5.80939 32.6651C4.52229 31.7016 4.00048 30.0475 4.24398 27.7026L4.76579 22.7227C4.85856 21.8406 4.70782 21.1499 4.31357 20.6507C3.93091 20.1516 3.36272 19.8033 2.60901 19.6059C1.85529 19.3971 0.985626 19.2926 0 19.2926V14.8351C0.97403 14.8351 1.8379 14.7364 2.59162 14.5391C3.34533 14.3301 3.91932 13.9761 4.31357 13.477C4.70782 12.9778 4.85856 12.2871 4.76579 11.4049L4.24398 6.45987C3.98889 4.06861 4.51068 2.39706 5.80939 1.4452C7.1081 0.481734 9.35765 0 12.5581 0Z" fill="#42446E" />
    <path d="M27.633 4.50977C30.5087 4.50977 32.6771 5.62414 34.1381 7.85288C35.6108 10.07 36.3471 13.1636 36.3471 17.1335C36.3471 21.115 35.6108 24.2318 34.1381 26.4838C32.6771 28.7242 30.5087 29.8443 27.633 29.8443C24.7342 29.8443 22.5541 28.7242 21.0931 26.4838C19.6436 24.2318 18.9189 21.115 18.9189 17.1335C18.9189 13.1636 19.6436 10.07 21.0931 7.85288C22.5541 5.62414 24.7342 4.50977 27.633 4.50977ZM27.633 8.49713C26.4039 8.49713 25.5052 9.15879 24.937 10.4821C24.3689 11.7938 24.0847 14.0109 24.0847 17.1335C24.0847 18.1551 24.1022 19.0663 24.1369 19.8672C24.1718 20.6566 24.224 21.3589 24.2935 21.9741L30.1724 9.66374C29.8942 9.22264 29.5463 8.92083 29.1289 8.75831C28.7231 8.5842 28.2244 8.49713 27.633 8.49713ZM31.1465 17.1335C31.1465 15.7986 31.1175 14.6726 31.0595 13.7555L25.511 25.2302C25.7662 25.4739 26.0676 25.6422 26.4154 25.7351C26.775 25.8279 27.1808 25.8744 27.633 25.8744C28.4564 25.8744 29.1231 25.5958 29.6333 25.0387C30.1551 24.4815 30.5377 23.5644 30.7812 22.2875C31.0248 20.999 31.1465 19.281 31.1465 17.1335Z" fill="#42446E" />
    <path d="M48.4999 4.50977C51.3757 4.50977 53.544 5.62414 55.0051 7.85288C56.4777 10.07 57.214 13.1636 57.214 17.1335C57.214 21.115 56.4777 24.2318 55.0051 26.4838C53.544 28.7242 51.3757 29.8443 48.4999 29.8443C45.601 29.8443 43.4211 28.7242 41.96 26.4838C40.5106 24.2318 39.7859 21.115 39.7859 17.1335C39.7859 13.1636 40.5106 10.07 41.96 7.85288C43.4211 5.62414 45.601 4.50977 48.4999 4.50977ZM48.4999 8.49713C47.2709 8.49713 46.3722 9.15879 45.8039 10.4821C45.2358 11.7938 44.9517 14.0109 44.9517 17.1335C44.9517 18.1551 44.9691 19.0663 45.0039 19.8672C45.0386 20.6566 45.0908 21.3589 45.1604 21.9741L51.0394 9.66374C50.761 9.22264 50.4132 8.92083 49.9958 8.75831C49.5899 8.5842 49.0913 8.49713 48.4999 8.49713ZM52.0134 17.1335C52.0134 15.7986 51.9844 14.6726 51.9265 13.7555L46.378 25.2302C46.633 25.4739 46.9345 25.6422 47.2824 25.7351C47.6419 25.8279 48.0477 25.8744 48.4999 25.8744C49.3232 25.8744 49.9899 25.5958 50.5002 25.0387C51.0219 24.4815 51.4046 23.5644 51.6481 22.2875C51.8916 20.999 52.0134 19.281 52.0134 17.1335Z" fill="#42446E" />
    <path d="M68.1146 29.8095L62.8966 28.1902L71.889 9.26321H61.2964V5.11914H77.4549V8.84532L68.1146 29.8095Z" fill="#42446E" />
    <path d="M84.4419 0C87.6423 0 89.8861 0.481734 91.1732 1.4452C92.4719 2.40867 92.9995 4.06862 92.756 6.42505L92.2342 11.4049C92.1414 12.2871 92.2921 12.9778 92.6864 13.477C93.0807 13.9761 93.6488 14.3301 94.3909 14.5391C95.1447 14.7364 96.0144 14.8351 97 14.8351V19.2926C96.0259 19.2926 95.1621 19.3971 94.4083 19.6059C93.6547 19.8033 93.0807 20.1516 92.6864 20.6507C92.2921 21.1499 92.1414 21.8406 92.2342 22.7227L92.756 27.6678C93.0227 30.0475 92.5009 31.719 91.1905 32.6824C89.8918 33.646 87.6423 34.1277 84.4419 34.1277V30.297C85.5088 30.297 86.3378 30.146 86.9291 29.8443C87.5206 29.5541 87.7699 28.9679 87.6772 28.0857L87.1379 22.9492C86.9988 21.6374 87.1379 20.5868 87.5553 19.7976C87.9844 18.9965 88.6338 18.3871 89.5035 17.9693C90.373 17.5397 91.3935 17.238 92.5646 17.0638C91.3239 16.8781 90.2688 16.5763 89.3991 16.1584C88.5409 15.7405 87.9149 15.1369 87.5206 14.3476C87.1263 13.5466 86.9988 12.4903 87.1379 11.1785L87.6772 6.04199C87.7699 5.15977 87.5147 4.57357 86.9118 4.28338C86.3204 3.98157 85.4971 3.83066 84.4419 3.83066V0Z" fill="#42446E" />
    <path d="M12.2746 42.1621C13.2417 42.1621 14.0209 42.4024 14.6122 42.883C15.2037 43.3635 15.635 44.0426 15.9064 44.9202C16.1846 45.7977 16.3238 46.839 16.3238 48.0439C16.3238 49.1862 16.1568 50.2065 15.8229 51.1049C15.4889 51.9964 15.0054 52.6999 14.3723 53.2153C13.7391 53.7238 12.9703 53.978 12.0659 53.978C10.9875 53.978 10.1108 53.5914 9.43597 52.8182V57.9061L6.13818 58.2509V42.5278H9.06028L9.20639 43.771C9.65862 43.1929 10.1526 42.782 10.6883 42.5382C11.224 42.2875 11.7528 42.1621 12.2746 42.1621ZM11.2519 44.5964C10.8692 44.5964 10.5318 44.7113 10.2396 44.9411C9.94735 45.1709 9.67948 45.4843 9.43597 45.8813V50.5617C9.66557 50.903 9.9056 51.1537 10.1561 51.3139C10.4135 51.474 10.7161 51.5542 11.064 51.5542C11.6484 51.5542 12.1041 51.2895 12.4312 50.7601C12.7582 50.2238 12.9216 49.3325 12.9216 48.0857C12.9216 47.1663 12.8555 46.456 12.7233 45.9545C12.5912 45.4461 12.3999 45.0943 12.1493 44.8993C11.8989 44.6973 11.5997 44.5964 11.2519 44.5964Z" fill="#42446E" />
    <path d="M27.9881 50.4259C27.9881 50.8437 28.0437 51.1467 28.1551 51.3348C28.2733 51.5228 28.4612 51.6657 28.7186 51.7631L28.0403 53.9362C27.3862 53.8735 26.8332 53.7307 26.3809 53.5078C25.9356 53.278 25.5843 52.9332 25.3269 52.4736C24.9025 52.982 24.3598 53.3615 23.6989 53.6123C23.0379 53.856 22.3631 53.978 21.6743 53.978C20.5332 53.978 19.6218 53.6541 18.94 53.0063C18.2651 52.3517 17.9277 51.5124 17.9277 50.4886C17.9277 49.2837 18.3974 48.3538 19.3366 47.6991C20.2827 47.0445 21.6116 46.7172 23.3231 46.7172H24.8155V46.2992C24.8155 45.164 24.085 44.5964 22.6239 44.5964C22.2692 44.5964 21.8134 44.6486 21.2568 44.7531C20.7002 44.8505 20.1436 44.9932 19.587 45.1813L18.8252 42.9875C19.5419 42.7159 20.2863 42.5103 21.0585 42.3711C21.8377 42.2318 22.5335 42.1621 23.1457 42.1621C24.7946 42.1621 26.0121 42.4999 26.7983 43.1754C27.5915 43.8441 27.9881 44.8122 27.9881 46.0798V50.4259ZM22.8117 51.6169C23.1666 51.6169 23.5389 51.5124 23.9285 51.3034C24.3181 51.0876 24.6137 50.7846 24.8155 50.3946V48.5977H24.0015C23.0831 48.5977 22.4083 48.7404 21.9769 49.0259C21.5456 49.3045 21.3299 49.7155 21.3299 50.2588C21.3299 50.6836 21.4585 51.0179 21.716 51.2616C21.9804 51.4985 22.3457 51.6169 22.8117 51.6169Z" fill="#42446E" />
    <path d="M41.6355 42.5276L37.9412 53.6225H34.059L30.3228 42.5276H33.8815L36.0418 51.0943L38.2959 42.5276H41.6355Z" fill="#42446E" />
    <path d="M53.0286 50.4259C53.0286 50.8437 53.0843 51.1467 53.1956 51.3348C53.3139 51.5228 53.5017 51.6657 53.7591 51.7631L53.0808 53.9362C52.4267 53.8735 51.8737 53.7307 51.4215 53.5078C50.9762 53.278 50.6249 52.9332 50.3674 52.4736C49.9431 52.982 49.4003 53.3615 48.7394 53.6123C48.0784 53.856 47.4036 53.978 46.7148 53.978C45.5738 53.978 44.6623 53.6541 43.9805 53.0063C43.3057 52.3517 42.9683 51.5124 42.9683 50.4886C42.9683 49.2837 43.4379 48.3538 44.3771 47.6991C45.3233 47.0445 46.6522 46.7172 48.3637 46.7172H49.856V46.2992C49.856 45.164 49.1255 44.5964 47.6645 44.5964C47.3097 44.5964 46.8539 44.6486 46.2973 44.7531C45.7407 44.8505 45.1842 44.9932 44.6276 45.1813L43.8658 42.9875C44.5824 42.7159 45.3268 42.5103 46.099 42.3711C46.8783 42.2318 47.574 42.1621 48.1862 42.1621C49.8351 42.1621 51.0527 42.4999 51.8388 43.1754C52.632 43.8441 53.0286 44.8122 53.0286 46.0798V50.4259ZM47.8523 51.6169C48.2071 51.6169 48.5794 51.5124 48.969 51.3034C49.3586 51.0876 49.6543 50.7846 49.856 50.3946V48.5977H49.0421C48.1236 48.5977 47.4488 48.7404 47.0175 49.0259C46.5861 49.3045 46.3704 49.7155 46.3704 50.2588C46.3704 50.6836 46.4992 51.0179 46.7565 51.2616C47.0209 51.4985 47.3862 51.6169 47.8523 51.6169Z" fill="#42446E" />
    <path d="M56.2188 53.6227V42.5278H59.0992L59.3288 43.8128C59.8227 43.2556 60.3444 42.8412 60.8942 42.5696C61.4437 42.2979 62.0699 42.1621 62.7726 42.1621C63.7188 42.1621 64.4633 42.4511 65.006 43.0293C65.5486 43.6074 65.8199 44.4222 65.8199 45.4739V53.6227H62.5222V46.4246C62.5222 45.7421 62.4457 45.2685 62.2925 45.0037C62.1464 44.7322 61.8682 44.5964 61.4576 44.5964C61.1098 44.5964 60.7759 44.7077 60.4558 44.9307C60.1427 45.1535 59.8296 45.4634 59.5166 45.8604V53.6227H56.2188Z" fill="#42446E" />
    <path d="M76.9314 42.1621C77.7174 42.1621 78.2985 42.4199 78.6742 42.9353C79.0568 43.4436 79.2481 44.269 79.2481 45.4112V53.6227H76.42V45.7873C76.42 45.3973 76.3817 45.1222 76.3052 44.962C76.2356 44.8017 76.0894 44.7217 75.8668 44.7217C75.693 44.7217 75.512 44.774 75.3241 44.8784C75.1433 44.9759 74.9415 45.164 74.7189 45.4425V53.6227H72.4021V45.7873C72.4021 45.3973 72.3638 45.1222 72.2873 44.962C72.2177 44.8017 72.0716 44.7217 71.8489 44.7217C71.6751 44.7217 71.4941 44.774 71.3062 44.8784C71.1254 44.9759 70.9236 45.164 70.701 45.4425V53.6227H67.8311V42.5278H70.2522L70.4714 43.6038C70.8193 43.1302 71.1707 42.7715 71.5254 42.5278C71.8803 42.284 72.3012 42.1621 72.7882 42.1621C73.2056 42.1621 73.5604 42.27 73.8527 42.486C74.1519 42.695 74.3641 43.0257 74.4893 43.4784C74.8233 43.0884 75.192 42.7715 75.5955 42.5278C75.9991 42.284 76.4443 42.1621 76.9314 42.1621Z" fill="#42446E" />
    <path d="M91.1004 40.7517L91.8728 43.1754C91.4832 43.3287 91.0274 43.4401 90.5057 43.5097C89.9838 43.5794 89.3751 43.6142 88.6794 43.6142C89.3751 43.9137 89.9038 44.2863 90.2656 44.7321C90.6344 45.1708 90.8187 45.7489 90.8187 46.4664C90.8187 47.1837 90.6274 47.8245 90.2448 48.3886C89.862 48.9458 89.3195 49.3846 88.6168 49.705C87.9141 50.0254 87.0826 50.1856 86.1225 50.1856C85.6633 50.1856 85.2354 50.1438 84.8389 50.0602C84.7205 50.1229 84.6302 50.2133 84.5676 50.3318C84.5049 50.4502 84.4736 50.5721 84.4736 50.6975C84.4736 50.8716 84.5431 51.0283 84.6824 51.1675C84.8285 51.3069 85.1659 51.3765 85.6946 51.3765H87.5105C88.3732 51.3765 89.1176 51.5158 89.7438 51.7944C90.3769 52.0729 90.8674 52.4526 91.2153 52.9331C91.5631 53.4137 91.7371 53.964 91.7371 54.5839C91.7371 55.7191 91.2397 56.6141 90.2448 57.2688C89.2498 57.9234 87.7714 58.2509 85.8094 58.2509C84.3901 58.2509 83.2908 58.1046 82.5117 57.812C81.7393 57.5265 81.2002 57.1156 80.8941 56.5792C80.5949 56.0499 80.4453 55.4196 80.4453 54.6882H83.3673C83.3673 55.0087 83.43 55.2699 83.5552 55.4718C83.6874 55.6808 83.9344 55.8341 84.2962 55.9315C84.6649 56.029 85.1972 56.0778 85.8929 56.0778C86.5956 56.0778 87.1313 56.022 87.5 55.9107C87.8688 55.7992 88.1192 55.646 88.2515 55.4509C88.3906 55.2629 88.4602 55.0505 88.4602 54.8136C88.4602 54.4863 88.3314 54.2217 88.0741 54.0197C87.8166 53.8177 87.4097 53.7167 86.853 53.7167H85.0893C83.8926 53.7167 83.0229 53.4973 82.4803 53.0585C81.9376 52.6128 81.6663 52.0938 81.6663 51.5019C81.6663 51.091 81.7741 50.701 81.9898 50.3318C82.2124 49.9627 82.5221 49.6527 82.9187 49.402C82.209 49.0258 81.701 48.5836 81.3949 48.0752C81.0888 47.5598 80.9358 46.9434 80.9358 46.226C80.9358 45.3902 81.148 44.6729 81.5724 44.0739C81.9968 43.4679 82.5811 43.0013 83.3256 42.674C84.077 42.3467 84.9329 42.1829 85.8929 42.1829C86.7208 42.1968 87.441 42.1412 88.0532 42.0158C88.6654 41.8834 89.2151 41.7059 89.7021 41.4829C90.189 41.2531 90.6552 41.0093 91.1004 40.7517ZM85.9764 44.3246C85.4546 44.3246 85.0406 44.4918 84.7345 44.8262C84.4283 45.1535 84.2753 45.6062 84.2753 46.1843C84.2753 46.7971 84.4319 47.2673 84.745 47.5946C85.058 47.9219 85.4686 48.0857 85.9764 48.0857C87.1034 48.0857 87.667 47.4379 87.667 46.1425C87.667 44.9306 87.1034 44.3246 85.9764 44.3246Z" fill="white" />
  </>


<g id='goTop'>
    
    <path d="M6.80722 4.2806V15H9.19278V4.2806L14.3134 9.08118L16 7.5L8 0L0 7.5L1.6866 9.08118L6.80722 4.2806Z" fill="white" />

</g>


</svg>
